<svg width="375" height="408" viewBox="0 0 375 408" fill="none" xmlns="http://www.w3.org/2000/svg">
<path d="M392 312.038H-16V312.242H392V312.038Z" fill="#EBEBEB"/>
<path d="M48.0231 319.807H26.8071V320.011H48.0231V319.807Z" fill="#EBEBEB"/>
<path d="M147.551 317.595H103.405V317.799H147.551V317.595Z" fill="#EBEBEB"/>
<path d="M70.3165 327.387H48.8394V327.591H70.3165V327.387Z" fill="#EBEBEB"/>
<path d="M351.118 326.016H335.427V326.22H351.118V326.016Z" fill="#EBEBEB"/>
<path d="M328.156 326.016H303.439V326.22H328.156V326.016Z" fill="#EBEBEB"/>
<path d="M239.237 322.573H194.716V322.777H239.237V322.573Z" fill="#EBEBEB"/>
<path d="M177.392 275.645H19.8304C18.5961 275.643 17.413 275.151 16.541 274.277C15.669 273.404 15.1792 272.22 15.1792 270.985V49.4986C15.1899 48.2713 15.6845 47.0979 16.5553 46.2331C17.4262 45.3683 18.6031 44.8821 19.8304 44.88H177.392C178.628 44.88 179.813 45.3709 180.687 46.2447C181.56 47.1185 182.051 48.3036 182.051 49.5394V270.985C182.051 272.221 181.56 273.406 180.687 274.28C179.813 275.154 178.628 275.645 177.392 275.645ZM19.8304 45.0432C18.6502 45.0454 17.519 45.5157 16.6853 46.351C15.8515 47.1863 15.3832 48.3183 15.3832 49.4986V270.985C15.3832 272.166 15.8515 273.298 16.6853 274.133C17.519 274.968 18.6502 275.439 19.8304 275.441H177.392C178.573 275.439 179.705 274.969 180.54 274.133C181.375 273.298 181.845 272.166 181.847 270.985V49.4986C181.845 48.3176 181.375 47.1856 180.54 46.3505C179.705 45.5155 178.573 45.0454 177.392 45.0432H19.8304Z" fill="#EBEBEB"/>
<path d="M353.901 275.645H196.331C195.096 275.643 193.912 275.151 193.039 274.278C192.166 273.404 191.674 272.221 191.672 270.985V49.4986C191.685 48.2706 192.181 47.0971 193.053 46.2326C193.925 45.3681 195.103 44.8821 196.331 44.88H353.901C355.127 44.8843 356.302 45.3714 357.171 46.236C358.04 47.1005 358.533 48.2727 358.544 49.4986V270.985C358.544 272.218 358.055 273.401 357.185 274.274C356.315 275.148 355.134 275.64 353.901 275.645ZM196.331 45.0432C195.15 45.0454 194.018 45.5155 193.183 46.3505C192.348 47.1856 191.878 48.3176 191.876 49.4986V270.985C191.878 272.166 192.348 273.298 193.183 274.133C194.018 274.969 195.15 275.439 196.331 275.441H353.901C355.082 275.439 356.214 274.969 357.049 274.133C357.884 273.298 358.354 272.166 358.356 270.985V49.4986C358.354 48.3176 357.884 47.1856 357.049 46.3505C356.214 45.5155 355.082 45.0454 353.901 45.0432H196.331Z" fill="#EBEBEB"/>
<path d="M138.094 229.239C137.694 229.239 137.278 229.239 136.894 229.288C128.424 229.965 121.57 238.035 121.031 247.966C120.911 250.157 121.097 252.355 121.586 254.494C123.456 263.07 124.354 271.829 124.262 280.606V306.237C124.262 308.097 125.552 309.607 127.135 309.607H238.209V229.239H138.094Z" fill="#F0F0F0"/>
<path d="M255.304 249.28C255.304 237.742 246.989 228.488 237.009 229.288C228.539 229.965 221.684 238.035 221.146 247.966C221.023 250.157 221.207 252.354 221.693 254.494C223.566 263.07 224.466 271.829 224.377 280.606V306.237C224.377 308.097 225.658 309.607 227.25 309.607H249.2C250.783 309.607 252.072 308.097 252.072 306.237V279.072C252.006 270.837 252.893 262.623 254.716 254.592C255.118 252.85 255.315 251.067 255.304 249.28Z" fill="#FAFAFA"/>
<path d="M214.651 264.156H100.443V309.599H214.651V264.156Z" fill="#F5F5F5"/>
<path d="M62.956 209.712H183.104C184.944 209.712 186.766 210.074 188.466 210.778C190.165 211.483 191.71 212.515 193.011 213.816C194.312 215.117 195.344 216.661 196.048 218.361C196.752 220.061 197.115 221.883 197.115 223.723V271.867H48.9453V223.723C48.9453 221.883 49.3077 220.061 50.0118 218.361C50.7159 216.661 51.7479 215.117 53.049 213.816C54.35 212.515 55.8945 211.483 57.5944 210.778C59.2942 210.074 61.1161 209.712 62.956 209.712Z" fill="#E6E6E6"/>
<path d="M73.148 209.712H186.719C190.383 209.712 193.897 211.167 196.487 213.758C199.078 216.349 200.534 219.863 200.534 223.527V271.85H59.3657V223.519C59.3679 219.862 60.8198 216.355 63.4033 213.767C65.9868 211.179 69.4911 209.721 73.148 209.712Z" fill="#F5F5F5"/>
<path d="M104.295 262.524H214.601C215.398 262.524 216.162 262.84 216.725 263.403C217.288 263.966 217.604 264.73 217.604 265.526V270.365C217.602 271.16 217.285 271.922 216.722 272.483C216.159 273.045 215.396 273.36 214.601 273.36H104.295C104.057 273.36 103.828 273.265 103.66 273.097C103.492 272.929 103.397 272.7 103.397 272.462V263.421C103.397 263.183 103.492 262.955 103.66 262.786C103.828 262.618 104.057 262.524 104.295 262.524Z" fill="#EBEBEB"/>
<path d="M41.936 309.599H239.065V309.786C239.065 310.384 238.828 310.956 238.406 311.379C237.983 311.801 237.41 312.038 236.813 312.038H44.1964C43.8999 312.039 43.6062 311.982 43.332 311.869C43.0578 311.757 42.8086 311.591 42.5986 311.382C42.3886 311.172 42.2219 310.924 42.1082 310.65C41.9946 310.376 41.936 310.083 41.936 309.786V309.599Z" fill="#E6E6E6"/>
<path d="M42.8011 229.239C42.3985 229.239 41.9987 229.255 41.6016 229.288C33.1315 229.965 26.2771 238.035 25.7385 247.966C25.6182 250.157 25.805 252.355 26.2934 254.494C28.1636 263.07 29.0615 271.829 28.9699 280.606V306.237C28.9699 308.097 30.2592 309.607 31.8422 309.607H101.259V229.239H42.8011Z" fill="#F0F0F0"/>
<path d="M118.354 249.28C118.354 237.742 110.048 228.488 100.06 229.288C91.5896 229.965 84.7352 238.035 84.1967 247.966C84.0737 250.157 84.2577 252.354 84.7434 254.494C86.6204 263.069 87.521 271.829 87.428 280.606V306.237C87.428 308.097 88.7091 309.607 90.3003 309.607H112.218C113.801 309.607 115.09 308.097 115.09 306.237V279.072C115.024 270.837 115.911 262.623 117.734 254.592C118.147 252.851 118.355 251.069 118.354 249.28Z" fill="#FAFAFA"/>
<path d="M34.4943 156.868L343.277 156.868V63.5256L34.4943 63.5256V156.868Z" fill="#EBEBEB"/>
<path d="M42.654 149.703L335.108 149.703V70.6982L42.654 70.6982V149.703Z" fill="#FAFAFA"/>
<path d="M210.065 149.703H233.386L211.419 70.6982H188.098L210.065 149.703Z" fill="white"/>
<path d="M237.947 149.703H261.277L239.31 70.6982H215.98L237.947 149.703Z" fill="white"/>
<path d="M162.353 149.703H174.022L152.055 70.6982H140.395L162.353 149.703Z" fill="white"/>
<path d="M183.39 149.703H194.381V70.6982H183.39V149.703Z" fill="#EBEBEB"/>
<path d="M183.382 70.6982H180.934V149.703H183.382V70.6982Z" fill="#E0E0E0"/>
<path d="M34.494 63.5338H32.7314V156.876H34.494V63.5338Z" fill="#E0E0E0"/>
<path d="M340.168 307.493C342.155 307.487 344.058 306.695 345.463 305.29C346.868 303.885 347.66 301.981 347.667 299.994V226.611C347.66 224.624 346.868 222.721 345.463 221.316C344.058 219.911 342.155 219.119 340.168 219.112C338.182 219.119 336.279 219.911 334.875 221.316C333.471 222.722 332.681 224.625 332.677 226.611V299.994C332.681 301.98 333.471 303.884 334.875 305.289C336.279 306.694 338.182 307.487 340.168 307.493Z" fill="#F5F5F5"/>
<path d="M335.876 304.539C337.219 304.537 338.507 304.003 339.456 303.053C340.406 302.103 340.941 300.815 340.943 299.472V227.134C340.941 225.79 340.406 224.503 339.456 223.553C338.507 222.603 337.219 222.068 335.876 222.066C334.534 222.071 333.248 222.606 332.3 223.556C331.352 224.505 330.819 225.792 330.816 227.134V299.472C330.819 300.814 331.352 302.1 332.3 303.05C333.248 304 334.534 304.535 335.876 304.539Z" fill="#EBEBEB"/>
<path d="M329.282 307.493C331.268 307.487 333.171 306.694 334.575 305.289C335.978 303.884 336.769 301.98 336.773 299.994V226.611C336.769 224.625 335.978 222.722 334.575 221.316C333.171 219.911 331.268 219.119 329.282 219.112C327.295 219.119 325.392 219.911 323.987 221.316C322.582 222.721 321.79 224.624 321.783 226.611V299.994C321.79 301.981 322.582 303.885 323.987 305.29C325.392 306.695 327.295 307.487 329.282 307.493Z" fill="#F5F5F5"/>
<path d="M324.99 304.539C326.333 304.535 327.619 304 328.569 303.05C329.518 302.101 330.053 300.815 330.058 299.472V227.134C330.053 225.791 329.518 224.505 328.569 223.555C327.619 222.606 326.333 222.071 324.99 222.066C323.648 222.071 322.361 222.606 321.412 223.555C320.462 224.505 319.927 225.791 319.923 227.134V299.472C319.927 300.815 320.462 302.101 321.412 303.05C322.361 304 323.648 304.535 324.99 304.539Z" fill="#EBEBEB"/>
<path d="M318.397 307.493C320.383 307.487 322.286 306.694 323.69 305.289C325.093 303.884 325.884 301.98 325.888 299.994V226.611C325.884 224.625 325.093 222.722 323.69 221.316C322.286 219.911 320.383 219.119 318.397 219.112C316.41 219.119 314.506 219.911 313.102 221.316C311.697 222.721 310.904 224.624 310.898 226.611V299.994C310.904 301.981 311.697 303.885 313.102 305.29C314.506 306.695 316.41 307.487 318.397 307.493Z" fill="#F5F5F5"/>
<path d="M314.104 304.539C315.446 304.535 316.732 304 317.68 303.05C318.628 302.1 319.162 300.814 319.164 299.472V227.134C319.162 225.792 318.628 224.505 317.68 223.556C316.732 222.606 315.446 222.071 314.104 222.066C312.761 222.068 311.474 222.603 310.524 223.553C309.574 224.503 309.039 225.79 309.037 227.134V299.472C309.039 300.815 309.574 302.103 310.524 303.053C311.474 304.003 312.761 304.537 314.104 304.539Z" fill="#EBEBEB"/>
<path d="M300.013 299.994C300.013 304.136 303.368 307.493 307.507 307.493C311.647 307.493 315.002 304.136 315.002 299.994V226.62C315.002 222.478 311.647 219.12 307.507 219.12C303.368 219.12 300.013 222.478 300.013 226.62V299.994Z" fill="#F5F5F5"/>
<path d="M303.211 304.539C304.554 304.537 305.842 304.003 306.792 303.053C307.742 302.103 308.276 300.815 308.278 299.472V227.134C308.276 225.79 307.742 224.503 306.792 223.553C305.842 222.603 304.554 222.068 303.211 222.066C301.869 222.071 300.584 222.606 299.636 223.556C298.687 224.505 298.154 225.792 298.152 227.134V299.472C298.154 300.814 298.687 302.1 299.636 303.05C300.584 304 301.869 304.535 303.211 304.539Z" fill="#EBEBEB"/>
<path d="M296.618 307.493C298.605 307.487 300.508 306.695 301.913 305.29C303.318 303.885 304.11 301.981 304.117 299.994V226.611C304.11 224.624 303.318 222.721 301.913 221.316C300.508 219.911 298.605 219.119 296.618 219.112C294.631 219.119 292.727 219.911 291.322 221.316C289.917 222.721 289.125 224.624 289.119 226.611V299.994C289.125 301.981 289.917 303.885 291.322 305.29C292.727 306.695 294.631 307.487 296.618 307.493Z" fill="#F5F5F5"/>
<path d="M292.326 304.539C293.669 304.537 294.957 304.003 295.906 303.053C296.856 302.103 297.391 300.815 297.393 299.472V227.134C297.391 225.79 296.856 224.503 295.906 223.553C294.957 222.603 293.669 222.068 292.326 222.066C290.983 222.071 289.697 222.606 288.747 223.555C287.798 224.505 287.263 225.791 287.258 227.134V299.472C287.263 300.815 287.798 302.101 288.747 303.05C289.697 304 290.983 304.535 292.326 304.539Z" fill="#EBEBEB"/>
<path d="M285.732 307.493C287.719 307.487 289.621 306.694 291.025 305.289C292.429 303.884 293.219 301.98 293.223 299.994V226.611C293.219 224.625 292.429 222.722 291.025 221.316C289.621 219.911 287.719 219.119 285.732 219.112C283.746 219.119 281.842 219.911 280.437 221.316C279.032 222.721 278.24 224.624 278.233 226.611V299.994C278.24 301.981 279.032 303.885 280.437 305.29C281.842 306.695 283.746 307.487 285.732 307.493Z" fill="#F5F5F5"/>
<path d="M281.44 304.539C282.783 304.535 284.069 304 285.019 303.05C285.968 302.101 286.503 300.815 286.508 299.472V227.134C286.503 225.791 285.968 224.505 285.019 223.555C284.069 222.606 282.783 222.071 281.44 222.066C280.097 222.068 278.809 222.603 277.86 223.553C276.91 224.503 276.375 225.79 276.373 227.134V299.472C276.375 300.815 276.91 302.103 277.86 303.053C278.809 304.003 280.097 304.537 281.44 304.539Z" fill="#EBEBEB"/>
<path d="M274.839 307.493C276.825 307.487 278.729 306.695 280.134 305.29C281.539 303.885 282.331 301.981 282.338 299.994V226.611C282.331 224.624 281.539 222.721 280.134 221.316C278.729 219.911 276.825 219.119 274.839 219.112C272.852 219.119 270.95 219.911 269.546 221.316C268.142 222.722 267.352 224.625 267.348 226.611V299.994C267.352 301.98 268.142 303.884 269.546 305.289C270.95 306.694 272.852 307.487 274.839 307.493Z" fill="#F5F5F5"/>
<path d="M265.651 297.669H287.634C288.066 297.669 288.482 297.497 288.788 297.191C289.094 296.885 289.266 296.469 289.266 296.037C289.266 295.604 289.094 295.189 288.788 294.883C288.482 294.577 288.066 294.405 287.634 294.405H265.651C265.218 294.405 264.803 294.577 264.497 294.883C264.19 295.189 264.019 295.604 264.019 296.037C264.019 296.469 264.19 296.885 264.497 297.191C264.803 297.497 265.218 297.669 265.651 297.669Z" fill="#F5F5F5"/>
<path d="M265.651 234.429H287.634C288.066 234.429 288.482 234.257 288.788 233.951C289.094 233.645 289.266 233.23 289.266 232.797C289.266 232.364 289.094 231.949 288.788 231.643C288.482 231.337 288.066 231.165 287.634 231.165H265.651C265.218 231.165 264.803 231.337 264.497 231.643C264.19 231.949 264.019 232.364 264.019 232.797C264.019 233.23 264.19 233.645 264.497 233.951C264.803 234.257 265.218 234.429 265.651 234.429Z" fill="#F5F5F5"/>
<path d="M188 348.889C275.379 348.889 346.214 344.753 346.214 339.652C346.214 334.55 275.379 330.415 188 330.415C100.621 330.415 29.7856 334.55 29.7856 339.652C29.7856 344.753 100.621 348.889 188 348.889Z" fill="#F5F5F5"/>
<path d="M313.37 293.483H219.922C218.748 293.488 217.585 293.255 216.504 292.798C215.423 292.341 214.447 291.668 213.633 290.822C212.82 289.976 212.187 288.973 211.772 287.875C211.358 286.777 211.171 285.606 211.223 284.433L218.086 107.035C218.202 104.613 219.239 102.327 220.985 100.645C222.731 98.9632 225.054 98.0116 227.478 97.9853H320.926C322.1 97.9797 323.263 98.2126 324.344 98.67C325.425 99.1273 326.402 99.7994 327.215 100.646C328.029 101.492 328.662 102.495 329.076 103.593C329.49 104.691 329.677 105.862 329.625 107.035L322.762 284.433C322.646 286.855 321.609 289.14 319.863 290.822C318.117 292.505 315.794 293.456 313.37 293.483Z" fill="#5D1393"/>
<path d="M329.563 166.884L328.992 181.544L329.889 181.579L330.46 166.919L329.563 166.884Z" fill="#5D1393"/>
<path d="M330.029 155.471L329.792 161.529L330.689 161.564L330.926 155.506L330.029 155.471Z" fill="#5D1393"/>
<path opacity="0.8" d="M313.37 293.483H219.922C218.748 293.488 217.585 293.255 216.504 292.798C215.423 292.341 214.447 291.668 213.633 290.822C212.82 289.976 212.187 288.973 211.772 287.875C211.358 286.777 211.171 285.606 211.223 284.433L218.086 107.035C218.202 104.613 219.239 102.327 220.985 100.645C222.731 98.9632 225.054 98.0116 227.478 97.9853H320.926C322.1 97.9797 323.263 98.2126 324.344 98.67C325.425 99.1273 326.402 99.7994 327.215 100.646C328.029 101.492 328.662 102.495 329.076 103.593C329.49 104.691 329.677 105.862 329.625 107.035L322.762 284.433C322.646 286.855 321.609 289.14 319.863 290.822C318.117 292.505 315.794 293.456 313.37 293.483Z" fill="white"/>
<path d="M304.427 289.884H222.011C220.982 289.888 219.963 289.684 219.015 289.283C218.068 288.882 217.211 288.293 216.498 287.551C215.785 286.81 215.23 285.931 214.866 284.969C214.502 284.007 214.337 282.98 214.381 281.952L220.803 115.815C220.907 113.691 221.818 111.688 223.35 110.214C224.882 108.739 226.919 107.906 229.045 107.883H311.461C312.49 107.878 313.509 108.082 314.457 108.482C315.405 108.883 316.262 109.472 316.976 110.214C317.689 110.955 318.244 111.834 318.608 112.797C318.971 113.76 319.135 114.787 319.09 115.815L312.668 281.952C312.562 284.075 311.651 286.078 310.119 287.552C308.588 289.025 306.552 289.86 304.427 289.884Z" fill="#5D1393"/>
<path opacity="0.8" d="M267.446 280.476C269.627 278.337 269.727 274.902 267.67 272.804C265.612 270.706 262.176 270.741 259.994 272.88C257.813 275.02 257.713 278.455 259.771 280.553C261.828 282.65 265.265 282.616 267.446 280.476Z" fill="#FE7E59"/>
<path d="M265.185 238.884C260.833 238.913 256.52 238.055 252.511 236.363C248.501 234.671 244.877 232.18 241.861 229.042C238.845 225.904 236.5 222.185 234.969 218.111C233.437 214.037 232.751 209.694 232.953 205.346L234.055 176.746H233.998C233.675 176.744 233.353 176.717 233.035 176.664L231.925 205.346C231.719 209.826 232.427 214.301 234.006 218.499C235.585 222.697 238.003 226.529 241.111 229.762C244.219 232.995 247.952 235.562 252.084 237.305C256.216 239.049 260.66 239.933 265.144 239.904C274.649 239.862 283.748 236.046 290.44 229.296C290.197 229.05 289.984 228.776 289.804 228.48C286.589 231.752 282.759 234.356 278.534 236.141C274.309 237.927 269.772 238.859 265.185 238.884Z" fill="#FE7E59"/>
<path d="M269.135 136.631C251.648 136.631 236.658 149.687 233.737 166.57C233.954 166.557 234.172 166.557 234.39 166.57C234.52 166.57 234.643 166.57 234.773 166.57C237.662 150.25 252.178 137.667 269.094 137.667C273.447 137.637 277.76 138.494 281.771 140.185C285.782 141.877 289.407 144.368 292.423 147.506C295.44 150.644 297.786 154.364 299.318 158.438C300.85 162.513 301.536 166.857 301.334 171.205L300.012 205.363C299.798 210.697 298.342 215.908 295.761 220.581C296.085 220.675 296.395 220.812 296.683 220.989C299.327 216.189 300.816 210.839 301.032 205.363L302.354 171.205C302.564 166.723 301.858 162.246 300.281 158.046C298.703 153.846 296.286 150.011 293.178 146.776C290.069 143.541 286.334 140.973 282.201 139.229C278.067 137.485 273.621 136.601 269.135 136.631Z" fill="#FE7E59"/>
<path d="M268.866 143.616C274.364 143.603 279.749 145.181 284.37 148.161C284.516 147.845 284.694 147.544 284.9 147.264C280.12 144.195 274.554 142.574 268.874 142.596C262.446 142.617 256.18 144.61 250.922 148.308C251.102 148.597 251.253 148.903 251.371 149.222C256.483 145.59 262.595 143.632 268.866 143.616Z" fill="#FE7E59"/>
<path d="M237.286 208.627C237.033 206.879 236.94 205.112 237.009 203.347L238.176 173.155C238.43 166.931 240.589 160.936 244.361 155.978C244.069 155.831 243.795 155.65 243.545 155.44C239.661 160.555 237.44 166.738 237.18 173.155L236.013 203.347C235.942 205.194 236.04 207.043 236.307 208.871C236.625 208.758 236.953 208.676 237.286 208.627Z" fill="#FE7E59"/>
<path d="M292.26 154.036C292.013 154.288 291.74 154.512 291.444 154.705C295.489 159.994 297.546 166.536 297.254 173.188L296.088 203.38C295.715 211.293 292.327 218.764 286.62 224.258C280.913 229.753 273.32 232.855 265.398 232.927C259.109 232.956 252.987 230.898 247.992 227.076C247.7 227.303 247.383 227.495 247.046 227.648C252.262 231.757 258.717 233.977 265.357 233.947C273.553 233.873 281.409 230.664 287.313 224.98C293.218 219.296 296.722 211.567 297.108 203.38L298.274 173.188C298.581 166.296 296.452 159.516 292.26 154.036Z" fill="#FE7E59"/>
<path d="M241.701 185.159L242.085 175.187C242.407 168.343 245.337 161.881 250.273 157.129C255.21 152.376 261.777 149.693 268.629 149.63C274.397 149.587 279.993 151.59 284.424 155.283C288.855 158.976 291.834 164.12 292.832 169.801C293.166 169.742 293.504 169.712 293.843 169.712C292.829 163.777 289.738 158.396 285.122 154.531C280.506 150.665 274.666 148.566 268.645 148.61C261.519 148.673 254.688 151.462 249.554 156.405C244.42 161.348 241.373 168.068 241.04 175.187L240.673 185.232C240.908 185.203 241.145 185.187 241.383 185.183L241.701 185.159Z" fill="#FE7E59"/>
<path d="M276.283 224.612C272.948 226.116 269.333 226.897 265.675 226.905C262.352 226.936 259.059 226.29 255.995 225.004C252.931 223.719 250.161 221.822 247.855 219.43C245.549 217.038 243.756 214.201 242.584 211.092C241.412 207.983 240.887 204.667 241.04 201.348L241.277 195.342H240.958C240.723 195.343 240.489 195.327 240.257 195.293L240.02 201.332C239.86 204.777 240.404 208.22 241.618 211.448C242.832 214.677 244.691 217.625 247.082 220.112C249.473 222.598 252.345 224.572 255.523 225.913C258.701 227.253 262.119 227.932 265.569 227.909C269.441 227.904 273.267 227.07 276.789 225.461C276.588 225.198 276.418 224.914 276.283 224.612Z" fill="#FE7E59"/>
<path d="M293.451 179.928C293.305 179.928 293.158 179.928 293.019 179.928L292.203 201.372C291.924 207.89 289.251 214.075 284.696 218.745C284.9 219.024 285.072 219.325 285.21 219.643C290.07 214.768 292.929 208.25 293.223 201.372L294.039 179.92C293.851 179.912 293.655 179.928 293.451 179.928Z" fill="#FE7E59"/>
<path d="M277.548 156.55C274.686 155.258 271.581 154.593 268.441 154.599C262.384 154.653 256.578 157.023 252.214 161.224C247.849 165.424 245.259 171.136 244.973 177.186L244.116 199.341C244.07 200.647 244.136 201.954 244.312 203.249C244.61 202.978 244.935 202.74 245.283 202.539C245.152 201.478 245.103 200.409 245.136 199.341L245.993 177.186C246.266 171.409 248.74 165.956 252.907 161.945C257.074 157.935 262.617 155.671 268.401 155.619C271.37 155.623 274.305 156.26 277.009 157.488C277.158 157.159 277.339 156.844 277.548 156.55Z" fill="#FE7E59"/>
<path d="M285.398 162.645C285.199 162.939 284.973 163.212 284.72 163.461C287.789 167.359 289.356 172.23 289.135 177.186L288.278 199.341C288.01 204.951 285.666 210.261 281.701 214.239C277.737 218.217 272.435 220.58 266.826 220.867C266.719 221.232 266.574 221.585 266.393 221.919C272.353 221.734 278.024 219.306 282.271 215.119C286.518 210.933 289.028 205.298 289.298 199.341L290.155 177.186C290.389 171.922 288.698 166.753 285.398 162.645Z" fill="#FE7E59"/>
<path d="M264.124 162.082C264.141 161.725 264.19 161.37 264.271 161.021C261.665 161.587 259.204 162.684 257.042 164.244C257.356 164.405 257.647 164.608 257.906 164.848C259.787 163.543 261.896 162.605 264.124 162.082Z" fill="#FE7E59"/>
<path d="M283.57 201.903C282.422 205.651 280.111 208.936 276.971 211.283C273.832 213.63 270.027 214.918 266.107 214.959C263.822 214.975 261.557 214.525 259.452 213.636C257.346 212.747 255.444 211.438 253.862 209.789C252.279 208.14 251.05 206.186 250.248 204.046C249.447 201.905 249.09 199.624 249.2 197.341L249.902 179.185C249.989 177.04 250.464 174.927 251.305 172.951C251.014 172.715 250.756 172.441 250.538 172.135C249.55 174.351 248.996 176.736 248.906 179.161L248.204 197.317C248.093 199.729 248.475 202.138 249.325 204.398C250.176 206.658 251.477 208.721 253.151 210.462C254.824 212.203 256.835 213.584 259.059 214.523C261.284 215.462 263.676 215.938 266.091 215.922C270.242 215.875 274.271 214.51 277.596 212.024C280.921 209.538 283.37 206.059 284.59 202.091C284.245 202.059 283.903 201.996 283.57 201.903Z" fill="#FE7E59"/>
<path d="M285.104 179.185L284.957 182.955C285.227 182.907 285.499 182.88 285.773 182.874H285.993L286.132 179.161C286.293 175.307 285.194 171.505 283.002 168.331C280.81 165.156 277.643 162.783 273.982 161.568C274.014 161.932 274.014 162.298 273.982 162.661C277.359 163.865 280.261 166.119 282.262 169.093C284.264 172.067 285.26 175.604 285.104 179.185Z" fill="#FE7E59"/>
<path d="M267.968 166.57C264.049 166.607 260.293 168.143 257.471 170.863C254.648 173.582 252.974 177.278 252.79 181.193L252.635 185.224C252.976 185.246 253.315 185.298 253.647 185.379L253.81 181.193C253.982 177.545 255.545 174.102 258.179 171.573C260.813 169.044 264.316 167.621 267.968 167.598C269.731 167.589 271.478 167.938 273.102 168.625C274.726 169.311 276.193 170.321 277.414 171.593C278.635 172.865 279.585 174.371 280.206 176.022C280.826 177.672 281.105 179.431 281.024 181.193L280.477 195.342C280.324 198.528 279.109 201.571 277.028 203.987C274.946 206.403 272.116 208.053 268.988 208.676C269.025 209.017 269.025 209.362 268.988 209.704C272.386 209.067 275.47 207.303 277.741 204.697C280.012 202.091 281.339 198.795 281.505 195.342L282.052 181.193C282.14 179.295 281.84 177.399 281.17 175.62C280.5 173.842 279.475 172.219 278.157 170.851C276.838 169.482 275.255 168.397 273.503 167.661C271.751 166.925 269.868 166.554 267.968 166.57Z" fill="#FE7E59"/>
<path d="M258.437 178.565C258.649 178.553 258.862 178.553 259.073 178.565C259.952 177.051 261.211 175.793 262.725 174.914C264.239 174.035 265.956 173.567 267.707 173.555C268.774 173.555 269.834 173.737 270.84 174.094C270.954 173.768 271.099 173.454 271.273 173.155C270.143 172.741 268.95 172.529 267.748 172.527C265.722 172.548 263.74 173.12 262.015 174.183C260.289 175.245 258.886 176.757 257.956 178.557C258.116 178.552 258.277 178.554 258.437 178.565Z" fill="#FE7E59"/>
<path d="M276.552 193.343C276.499 194.511 276.239 195.66 275.785 196.738C276.103 196.855 276.402 197.017 276.675 197.219C277.209 195.993 277.513 194.679 277.572 193.343L277.964 183.192C277.995 182.245 277.899 181.298 277.678 180.377C277.37 180.539 277.044 180.665 276.707 180.752C276.895 181.554 276.974 182.377 276.944 183.2L276.552 193.343Z" fill="#FE7E59"/>
<path d="M268.784 202.678C268.052 202.855 267.301 202.945 266.548 202.947C265.305 202.95 264.075 202.7 262.932 202.213C261.788 201.726 260.756 201.011 259.897 200.113C259.038 199.215 258.37 198.152 257.934 196.988C257.498 195.825 257.303 194.584 257.36 193.343L257.54 188.749C257.197 188.719 256.858 188.656 256.528 188.561L256.34 193.343C256.279 194.719 256.499 196.093 256.986 197.382C257.472 198.671 258.216 199.847 259.172 200.839C260.127 201.832 261.275 202.619 262.544 203.154C263.814 203.689 265.179 203.96 266.556 203.951C267.411 203.948 268.263 203.844 269.094 203.641C268.963 203.33 268.859 203.007 268.784 202.678Z" fill="#FE7E59"/>
<path d="M267.511 178.549C265.726 178.57 264.017 179.275 262.736 180.518C261.455 181.761 260.699 183.448 260.624 185.232L260.387 191.385C260.365 191.958 260.423 192.532 260.559 193.09C260.818 192.777 261.12 192.503 261.456 192.274C261.416 191.982 261.399 191.687 261.407 191.393L261.644 185.24C261.717 183.735 262.363 182.315 263.449 181.271C264.535 180.228 265.98 179.639 267.487 179.626C268.213 179.624 268.932 179.77 269.6 180.054C270.268 180.338 270.872 180.754 271.375 181.278C271.877 181.802 272.269 182.423 272.525 183.103C272.781 183.782 272.896 184.507 272.864 185.232L272.627 191.385C272.574 192.476 272.22 193.531 271.603 194.433C270.987 195.334 270.132 196.047 269.135 196.493C269.117 196.878 269.063 197.26 268.972 197.635C270.287 197.18 271.435 196.341 272.268 195.227C273.102 194.113 273.582 192.774 273.647 191.385L273.892 185.232C273.938 184.368 273.806 183.503 273.506 182.692C273.205 181.88 272.742 181.139 272.144 180.513C271.546 179.887 270.827 179.39 270.031 179.052C269.234 178.715 268.376 178.543 267.511 178.549Z" fill="#FE7E59"/>
<path d="M284.672 105.182H256.03C255.818 105.182 255.608 105.14 255.413 105.057C255.217 104.975 255.041 104.854 254.893 104.702C254.745 104.549 254.63 104.369 254.553 104.171C254.477 103.973 254.44 103.762 254.447 103.55C254.472 103.112 254.663 102.699 254.981 102.396C255.299 102.092 255.721 101.922 256.161 101.918H284.794C285.007 101.917 285.218 101.959 285.414 102.041C285.61 102.123 285.788 102.244 285.936 102.396C286.085 102.549 286.201 102.729 286.278 102.928C286.356 103.126 286.392 103.338 286.385 103.55C286.359 103.989 286.167 104.4 285.849 104.703C285.531 105.006 285.111 105.177 284.672 105.182Z" fill="#5D1393"/>
<path opacity="0.2" d="M239.873 133.824C238.179 133.957 236.48 133.995 234.781 133.938C234.181 133.81 233.565 133.771 232.954 133.824H232.766C227.975 133.473 223.235 132.617 218.625 131.27C218.151 131.131 217.662 130.968 217.164 130.797L213.198 233.507L239.702 215.824C240.9 215.037 241.894 213.978 242.603 212.732C243.313 211.487 243.717 210.091 243.782 208.659L246.442 139.993C246.48 139.138 246.333 138.285 246.01 137.492C245.688 136.7 245.198 135.986 244.574 135.4C243.95 134.814 243.207 134.37 242.396 134.098C241.585 133.826 240.724 133.733 239.873 133.824Z" fill="black"/>
<path d="M233.484 126.162C231.793 126.297 230.096 126.338 228.4 126.284C227.8 126.157 227.185 126.116 226.573 126.162H226.377C221.588 125.814 216.851 124.958 212.244 123.608C206.467 121.812 201.143 118.795 196.633 114.762C195.538 113.707 194.074 113.122 192.553 113.13H185.634C184.083 113.142 182.59 113.722 181.44 114.762C176.653 118.783 171.101 121.792 165.12 123.608C160.444 124.952 155.642 125.808 150.791 126.162H150.595C149.98 126.116 149.362 126.157 148.759 126.284C147.066 126.338 145.371 126.297 143.683 126.162C142.814 126.095 141.94 126.204 141.113 126.48C140.286 126.757 139.523 127.197 138.869 127.774C138.215 128.35 137.683 129.052 137.305 129.837C136.926 130.623 136.709 131.476 136.666 132.347L134.005 201.022C133.945 202.412 134.233 203.795 134.845 205.045C135.456 206.295 136.371 207.372 137.506 208.178L175.981 235.236C177.398 236.23 179.088 236.761 180.819 236.754H187.731C189.498 236.748 191.224 236.22 192.692 235.236L233.256 208.178C234.45 207.39 235.442 206.331 236.151 205.087C236.86 203.844 237.266 202.451 237.336 201.022L239.988 132.347C240.022 131.498 239.876 130.651 239.557 129.863C239.238 129.076 238.754 128.365 238.138 127.78C237.523 127.194 236.789 126.747 235.986 126.468C235.183 126.189 234.33 126.084 233.484 126.162Z" fill="#FE7E59"/>
<path opacity="0.8" d="M233.484 126.162C231.793 126.297 230.096 126.338 228.4 126.284C227.8 126.157 227.185 126.116 226.573 126.162H226.377C221.588 125.814 216.851 124.958 212.244 123.608C206.467 121.812 201.143 118.795 196.633 114.762C195.538 113.707 194.074 113.122 192.553 113.13H185.634C184.083 113.142 182.59 113.722 181.44 114.762C176.653 118.783 171.101 121.792 165.12 123.608C160.444 124.952 155.642 125.808 150.791 126.162H150.595C149.98 126.116 149.362 126.157 148.759 126.284C147.066 126.338 145.371 126.297 143.683 126.162C142.814 126.095 141.94 126.204 141.113 126.48C140.286 126.757 139.523 127.197 138.869 127.774C138.215 128.35 137.683 129.052 137.305 129.837C136.926 130.623 136.709 131.476 136.666 132.347L134.005 201.022C133.945 202.412 134.233 203.795 134.845 205.045C135.456 206.295 136.371 207.372 137.506 208.178L175.981 235.236C177.398 236.23 179.088 236.761 180.819 236.754H187.731C189.498 236.748 191.224 236.22 192.692 235.236L233.256 208.178C234.45 207.39 235.442 206.331 236.151 205.087C236.86 203.844 237.266 202.451 237.336 201.022L239.988 132.347C240.022 131.498 239.876 130.651 239.557 129.863C239.238 129.076 238.754 128.365 238.138 127.78C237.523 127.194 236.789 126.747 235.986 126.468C235.183 126.189 234.33 126.084 233.484 126.162Z" fill="white"/>
<path d="M138.502 200.891L141.039 135.228C141.096 134.024 141.611 132.887 142.479 132.051C143.347 131.215 144.502 130.743 145.707 130.731H147.2C153.657 130.651 160.073 129.69 166.27 127.875C172.165 126.089 177.692 123.262 182.59 119.528C183.397 118.87 184.406 118.511 185.446 118.511C186.487 118.511 187.496 118.87 188.302 119.528C192.951 123.285 198.274 126.121 203.986 127.884C210.108 129.708 216.455 130.669 222.843 130.74H224.223C224.817 130.734 225.406 130.851 225.954 131.081C226.502 131.312 226.997 131.652 227.408 132.08C227.82 132.509 228.14 133.017 228.349 133.574C228.557 134.13 228.65 134.724 228.621 135.317L226.083 200.899C226.049 201.638 225.841 202.358 225.477 203.002C225.113 203.646 224.602 204.194 223.986 204.604L183.675 231.532C182.927 232.042 182.043 232.315 181.138 232.315C180.232 232.315 179.348 232.042 178.6 231.532L140.362 204.604C139.764 204.192 139.28 203.635 138.955 202.986C138.63 202.337 138.474 201.617 138.502 200.891Z" fill="#FE7E59"/>
<path opacity="0.2" d="M149.705 197.423L151.859 141.6C157.628 141.144 163.336 140.108 168.897 138.508C174.57 136.802 179.978 134.313 184.964 131.115C189.741 134.328 194.965 136.819 200.468 138.508C205.947 140.115 211.578 141.151 217.27 141.6L215.107 197.423L181.537 219.814L149.705 197.423Z" fill="white"/>
<path opacity="0.2" d="M160.991 191.589L162.549 151.27C165.536 150.707 168.547 149.997 171.525 149.14C175.989 147.825 180.315 146.082 184.443 143.934C188.434 146.089 192.633 147.834 196.976 149.14C199.925 149.994 202.871 150.704 205.814 151.27L204.255 191.589L182.06 206.448L160.991 191.589Z" fill="white"/>
<path d="M81.9168 306.433L78.6739 323.036L72.3179 335.421C72.2098 335.632 72.1463 335.864 72.1314 336.101C72.1164 336.338 72.1503 336.575 72.231 336.799C72.3116 337.022 72.4373 337.226 72.6002 337.399C72.7632 337.572 72.9598 337.71 73.1781 337.803C73.4313 337.914 73.7077 337.962 73.9835 337.943C74.2593 337.924 74.5264 337.839 74.762 337.694C77.8137 335.83 89.0033 328.914 89.1739 327.686C89.3651 326.266 93.7549 310.406 93.7549 310.406L81.9168 306.433Z" fill="#FE7E59"/>
<path d="M73.1782 337.803L89.4198 326.573L89.2628 327.255C89.1341 327.862 88.7926 328.402 88.3002 328.778C86.9484 329.781 83.2755 332.512 74.8099 337.708C74.567 337.857 74.2908 337.944 74.0061 337.961C73.7214 337.977 73.4369 337.923 73.1782 337.803Z" fill="#263238"/>
<path d="M87.1805 321.685C86.9439 321.789 86.7543 321.977 86.6484 322.213C86.5424 322.448 86.5277 322.715 86.607 322.961C86.702 323.201 86.8853 323.394 87.1191 323.502C87.353 323.61 87.6194 323.624 87.8632 323.541C88.1167 323.431 88.3194 323.229 88.4307 322.976C88.5421 322.723 88.554 322.437 88.464 322.176C88.3385 321.939 88.1272 321.759 87.8735 321.673C87.6197 321.587 87.3425 321.601 87.0986 321.712" fill="#EBEBEB"/>
<path d="M78.5372 331.413C78.2613 330.802 77.8721 330.248 77.3902 329.781C76.8359 329.412 76.2179 329.148 75.5674 329.003C75.5674 328.962 75.7995 328.88 76.2023 328.908C76.7232 328.961 77.2176 329.164 77.6268 329.49C78.0359 329.817 78.3424 330.255 78.5099 330.751C78.6123 331.147 78.5781 331.413 78.5372 331.413Z" fill="#263238"/>
<path d="M76.8781 333.366C76.7825 333.42 76.3661 332.772 75.5673 332.335C75.0574 332.118 74.5354 331.931 74.0039 331.775C74.2929 331.671 74.6028 331.638 74.9071 331.68C75.2114 331.722 75.5012 331.836 75.7516 332.014C76.6596 332.512 76.9737 333.345 76.8781 333.366Z" fill="#263238"/>
<path d="M81.35 329.058C80.7552 328.437 80.1164 327.859 79.4384 327.331C78.6936 326.904 77.9176 326.534 77.1172 326.225C78.0276 326.181 78.9236 326.464 79.6432 327.023C80.4346 327.479 81.0393 328.199 81.35 329.058Z" fill="#263238"/>
<path d="M82.7562 324.094C82.6879 324.183 81.8619 323.603 80.7081 323.303C79.5543 323.002 78.5234 323.077 78.5098 322.968C79.2476 322.695 80.059 322.695 80.7968 322.968C81.5605 323.106 82.2528 323.504 82.7562 324.094Z" fill="#263238"/>
<path d="M83.835 319.247C83.1665 318.856 82.4475 318.557 81.6982 318.36C80.927 318.277 80.148 318.302 79.3838 318.435C79.3838 318.394 79.5954 318.223 80.0187 318.087C80.5856 317.921 81.1833 317.891 81.7642 317.997C82.345 318.104 82.8928 318.345 83.364 318.701C83.7122 318.981 83.8624 319.22 83.835 319.247Z" fill="#263238"/>
<path d="M81.9305 317.445C81.919 317.23 81.9564 317.015 82.0397 316.817C82.2249 316.256 82.517 315.737 82.8999 315.288C83.1517 314.937 83.5113 314.678 83.924 314.55C84.065 314.519 84.2124 314.533 84.3449 314.591C84.4774 314.648 84.5882 314.746 84.6613 314.871C84.7904 315.117 84.8244 315.401 84.7569 315.67C84.5985 316.219 84.253 316.694 83.7804 317.015C83.3077 317.335 82.7377 317.48 82.1694 317.424C81.6099 317.36 81.0821 317.132 80.653 316.767C80.2239 316.402 79.9128 315.918 79.7595 315.376C79.722 315.239 79.7142 315.096 79.7366 314.956C79.759 314.816 79.811 314.682 79.8892 314.564C79.9813 314.453 80.1063 314.374 80.2461 314.338C80.386 314.303 80.5335 314.312 80.6675 314.366C81.0528 314.546 81.3846 314.824 81.6301 315.171C82.002 315.626 82.2888 316.144 82.4766 316.701C82.5628 316.899 82.607 317.113 82.6064 317.329C82.3148 316.612 81.9191 315.943 81.4321 315.342C81.2077 315.045 80.9118 314.811 80.5719 314.659C80.4993 314.628 80.4181 314.621 80.3414 314.641C80.2647 314.661 80.1969 314.706 80.1486 314.769C80.1032 314.85 80.0749 314.94 80.0655 315.033C80.0561 315.125 80.0658 315.219 80.094 315.308C80.241 315.771 80.5181 316.182 80.8921 316.492C81.2661 316.802 81.7214 316.997 82.2036 317.056C82.6824 317.1 83.1621 316.98 83.5639 316.716C83.9657 316.451 84.266 316.059 84.4155 315.602C84.4693 315.414 84.4548 315.213 84.3746 315.035C84.3354 314.966 84.2751 314.911 84.2026 314.879C84.13 314.847 84.0491 314.84 83.9718 314.857C83.6207 314.96 83.3119 315.173 83.0911 315.465C82.5905 316.051 82.1976 316.722 81.9305 317.445Z" fill="#263238"/>
<path d="M137.236 307.723L140.001 324.409L145.989 336.977C146.092 337.191 146.149 337.424 146.158 337.661C146.167 337.898 146.127 338.135 146.041 338.356C145.954 338.577 145.823 338.777 145.656 338.945C145.488 339.114 145.288 339.245 145.067 339.332C144.811 339.435 144.534 339.474 144.259 339.446C143.985 339.419 143.721 339.326 143.49 339.175C140.493 337.223 129.501 329.993 129.372 328.757C129.215 327.331 125.275 311.348 125.275 311.348L137.236 307.723Z" fill="#FE7E59"/>
<path d="M145.067 339.339L129.16 327.645L129.29 328.327C129.406 328.934 129.733 329.48 130.212 329.87C131.502 330.915 135.127 333.707 143.436 339.175C143.675 339.33 143.949 339.424 144.234 339.449C144.518 339.474 144.804 339.429 145.067 339.319V339.339Z" fill="#263238"/>
<path d="M131.536 322.818C131.768 322.929 131.952 323.122 132.051 323.36C132.151 323.598 132.159 323.864 132.075 324.108C131.971 324.344 131.782 324.532 131.545 324.633C131.308 324.734 131.041 324.742 130.799 324.654C130.553 324.537 130.359 324.332 130.255 324.079C130.152 323.827 130.146 323.545 130.239 323.289C130.37 323.058 130.585 322.886 130.839 322.809C131.093 322.731 131.367 322.754 131.604 322.872" fill="#EBEBEB"/>
<path d="M139.892 332.792C140.194 332.196 140.606 331.664 141.107 331.222C141.669 330.863 142.295 330.617 142.951 330.498C142.951 330.45 142.718 330.362 142.322 330.382C141.8 330.42 141.299 330.608 140.881 330.923C140.462 331.237 140.142 331.666 139.96 332.157C139.831 332.512 139.851 332.785 139.892 332.792Z" fill="#263238"/>
<path d="M141.496 334.793C141.592 334.847 142.022 334.212 142.862 333.803C143.379 333.598 143.908 333.425 144.446 333.284C144.16 333.172 143.851 333.131 143.546 333.163C143.241 333.195 142.948 333.3 142.691 333.468C141.742 333.939 141.401 334.765 141.496 334.793Z" fill="#263238"/>
<path d="M137.148 330.355C137.762 329.753 138.417 329.194 139.107 328.682C139.866 328.278 140.653 327.932 141.463 327.645C140.557 327.639 139.67 327.893 138.905 328.377C138.14 328.861 137.53 329.555 137.148 330.375V330.355Z" fill="#263238"/>
<path d="M135.885 325.357C135.946 325.446 136.793 324.886 137.981 324.62C139.169 324.354 140.165 324.456 140.186 324.347C139.456 324.055 138.649 324.024 137.899 324.258C137.119 324.376 136.406 324.766 135.885 325.357Z" fill="#263238"/>
<path d="M134.949 320.476C135.63 320.105 136.358 319.83 137.113 319.657C137.885 319.595 138.662 319.641 139.421 319.793C139.421 319.752 139.216 319.575 138.793 319.425C138.231 319.246 137.635 319.199 137.052 319.288C136.469 319.386 135.917 319.62 135.441 319.971C135.079 320.224 134.915 320.449 134.949 320.476Z" fill="#263238"/>
<path d="M136.909 318.735C136.922 318.519 136.887 318.302 136.807 318.1C136.645 317.535 136.371 317.008 136.001 316.551C135.759 316.188 135.404 315.917 134.991 315.779C134.852 315.746 134.706 315.757 134.574 315.811C134.441 315.865 134.329 315.959 134.253 316.079C134.113 316.321 134.069 316.606 134.131 316.878C134.275 317.43 134.607 317.914 135.069 318.247C135.531 318.581 136.095 318.744 136.663 318.708C137.224 318.658 137.757 318.444 138.196 318.091C138.634 317.739 138.959 317.265 139.128 316.728C139.169 316.593 139.181 316.45 139.162 316.31C139.143 316.17 139.094 316.035 139.019 315.916C138.93 315.801 138.808 315.718 138.67 315.677C138.531 315.637 138.383 315.641 138.247 315.69C137.856 315.857 137.516 316.126 137.264 316.469C136.881 316.913 136.578 317.422 136.37 317.971C136.281 318.166 136.232 318.377 136.226 318.592C136.541 317.886 136.954 317.228 137.455 316.639C137.69 316.345 137.992 316.111 138.336 315.957C138.409 315.929 138.49 315.926 138.565 315.949C138.64 315.971 138.706 316.017 138.752 316.079C138.796 316.162 138.822 316.252 138.829 316.345C138.836 316.438 138.824 316.531 138.793 316.619C138.634 317.078 138.346 317.481 137.963 317.78C137.58 318.079 137.12 318.261 136.636 318.305C136.159 318.337 135.684 318.207 135.29 317.935C134.896 317.664 134.606 317.267 134.465 316.81C134.417 316.62 134.439 316.419 134.526 316.243C134.57 316.177 134.632 316.126 134.705 316.095C134.778 316.065 134.859 316.057 134.936 316.073C135.279 316.194 135.579 316.415 135.796 316.708C136.283 317.313 136.659 318 136.909 318.735Z" fill="#263238"/>
<path d="M83.5349 197.766C81.992 195.418 75.595 322.954 76.0251 323.692L92.8743 323.931L102.043 255.783L107.034 203.672L115.042 252.635L124.907 324.395L143.34 324.654L131.939 194.605L108.112 180.951L83.5349 197.766Z" fill="#263238"/>
<path d="M99.592 112.08C99.592 112.08 94.458 112.981 92.4577 114.729C90.4574 116.476 88.4843 120.409 88.4843 120.409L78.667 127.017L87.3101 161.453L80.0665 209.045L81.5139 213.141L135.666 212.24L136.697 208.505L131.099 165.249L133.557 136.22L135.816 124.56L126.013 120.17C126.013 120.17 130.505 118.804 130.71 117.999C130.915 117.193 120.585 111.923 120.585 111.923C120.585 111.923 104.296 109.137 99.592 112.08Z" fill="#5D1393"/>
<path opacity="0.3" d="M83.1592 186.72C89.3035 194.633 97.6121 200.47 105.825 206.177C107.559 207.379 109.355 208.614 111.423 209.017C112.915 209.287 114.454 209.118 115.852 208.532C117.25 207.945 118.448 206.966 119.302 205.713C120.49 203.904 120.892 201.617 122.299 199.978C123.255 198.865 124.586 198.149 125.61 197.097C126.454 196.152 127.168 195.098 127.733 193.964L131.092 187.901C126.996 187.901 123.241 189.895 119.554 191.649C115.868 193.404 111.778 195.001 107.805 194.093C102.295 192.83 98.7864 187.225 93.4681 185.252C91.7959 184.643 90.009 184.415 88.2375 184.584C86.466 184.753 84.7544 185.315 83.2275 186.229" fill="black"/>
<path d="M78.667 127.017C78.667 127.017 76.6189 129.591 76.2024 134.998C75.786 140.405 72.27 168.778 73.4716 172.854C74.6732 176.93 89.8088 193.95 94.8608 193.533L96.7451 192.851L98.5475 194.25L106.617 188.202L88.8325 165.816L89.7883 133.592C89.7883 133.592 84.2925 125.768 78.667 127.017Z" fill="#5D1393"/>
<path d="M92.4576 114.729C92.4576 114.729 92.2937 114.838 92.0138 115.097C91.6078 115.486 91.244 115.916 90.9283 116.381C90.4914 116.981 90.0545 117.746 89.5151 118.709C88.9758 119.671 88.2794 120.661 87.5421 121.836L87.426 121.692C88.5018 121.313 89.675 121.313 90.7508 121.692C91.9614 122.116 93.094 122.737 94.1029 123.529C96.4096 125.399 98.4413 127.584 100.138 130.021C104.338 135.947 108.048 142.206 111.232 148.734V148.775V148.823C111.15 151.636 111.068 154.578 110.979 157.582C110.543 172.813 110.153 186.597 109.867 196.599C109.71 201.576 109.587 205.611 109.498 208.417C109.45 209.782 109.409 210.881 109.382 211.632C109.382 211.987 109.382 212.26 109.341 212.465C109.348 212.56 109.348 212.656 109.341 212.752C109.333 212.656 109.333 212.56 109.341 212.465V211.632C109.341 210.874 109.375 209.796 109.396 208.417C109.457 205.604 109.539 201.589 109.648 196.592C109.887 186.604 110.201 172.813 110.659 157.575C110.747 154.571 110.829 151.622 110.911 148.809V148.891C107.75 142.365 104.075 136.101 99.9196 130.158C98.2468 127.735 96.2456 125.557 93.9732 123.686C92.9906 122.906 91.8887 122.291 90.7099 121.863C89.6764 121.496 88.5483 121.496 87.5148 121.863L87.2417 121.965L87.3987 121.726C88.1497 120.566 88.8256 119.528 89.4059 118.62C89.9862 117.712 90.4163 116.906 90.8669 116.312C91.1933 115.85 91.5737 115.428 92.0002 115.056C92.1382 114.928 92.2919 114.818 92.4576 114.729Z" fill="#263238"/>
<path d="M128.846 118.825C128.846 118.879 127.808 119.187 126.17 119.842C124.031 120.678 122.015 121.798 120.176 123.174C118.375 124.605 116.703 126.19 115.178 127.912L113.765 129.461C113.602 129.662 113.416 129.842 113.212 130.001C113.337 129.774 113.488 129.563 113.663 129.373C113.963 128.977 114.42 128.424 115.028 127.748C116.508 125.96 118.171 124.333 119.991 122.894C121.86 121.492 123.932 120.384 126.136 119.61C126.975 119.303 127.665 119.105 128.15 118.975C128.374 118.895 128.608 118.845 128.846 118.825Z" fill="#263238"/>
<path d="M111.198 148.864C111.187 148.523 111.21 148.183 111.266 147.847C111.341 147.198 111.478 146.263 111.696 145.116C112.12 142.822 112.877 139.654 113.881 136.241C114.727 133.319 115.741 130.449 116.919 127.645C117.383 126.567 117.8 125.72 118.114 125.147C118.267 124.844 118.447 124.556 118.653 124.286C118.542 124.607 118.402 124.918 118.237 125.215C117.964 125.802 117.554 126.662 117.151 127.741C116.277 129.891 115.24 132.943 114.222 136.343C113.205 139.743 112.427 142.863 111.942 145.143C111.696 146.276 111.519 147.191 111.403 147.84C111.363 148.186 111.294 148.529 111.198 148.864Z" fill="#263238"/>
<path d="M112.891 129.789C113.708 127.695 114.631 125.644 115.656 123.645C116.581 121.594 117.613 119.593 118.749 117.651C117.931 119.745 117.006 121.796 115.977 123.795C115.056 125.847 114.026 127.847 112.891 129.789Z" fill="#263238"/>
<path d="M114.564 142.563L114.721 142.228C114.91 142.36 115.133 142.433 115.363 142.44C115.636 142.44 115.745 142.358 115.745 142.235C115.745 141.866 114.612 142.105 114.619 141.375C114.619 141.047 114.898 140.774 115.451 140.781C115.692 140.777 115.928 140.841 116.134 140.965L115.991 141.306C115.828 141.207 115.642 141.15 115.451 141.142C115.185 141.142 115.076 141.238 115.076 141.361C115.076 141.723 116.216 141.491 116.202 142.207C116.202 142.535 115.923 142.808 115.363 142.801C115.078 142.807 114.799 142.723 114.564 142.563Z" fill="#FE7E59"/>
<path d="M118.018 142.446V142.808H116.502L116.537 140.849H118.011V141.211H116.987V141.641H117.895V141.996H116.987V142.446H118.018Z" fill="#FE7E59"/>
<path d="M118.257 141.832C118.26 141.695 118.29 141.56 118.346 141.434C118.402 141.309 118.483 141.197 118.584 141.104C118.685 141.01 118.803 140.939 118.932 140.893C119.062 140.846 119.199 140.827 119.336 140.835C119.488 140.83 119.639 140.86 119.777 140.923C119.916 140.986 120.038 141.079 120.135 141.197L119.841 141.457C119.783 141.384 119.709 141.326 119.625 141.285C119.541 141.245 119.449 141.224 119.356 141.224C119.269 141.215 119.18 141.225 119.097 141.252C119.013 141.279 118.936 141.324 118.87 141.382C118.805 141.441 118.753 141.513 118.717 141.594C118.681 141.674 118.663 141.761 118.663 141.849C118.663 141.937 118.681 142.024 118.717 142.104C118.753 142.185 118.805 142.257 118.87 142.316C118.936 142.375 119.013 142.419 119.097 142.446C119.18 142.474 119.269 142.483 119.356 142.474C119.45 142.476 119.543 142.456 119.628 142.417C119.713 142.378 119.788 142.321 119.848 142.248L120.135 142.522C120.034 142.636 119.908 142.726 119.767 142.784C119.627 142.842 119.474 142.867 119.322 142.856C119.183 142.865 119.045 142.844 118.914 142.796C118.784 142.749 118.665 142.674 118.565 142.578C118.465 142.482 118.386 142.366 118.333 142.237C118.28 142.109 118.254 141.971 118.257 141.832Z" fill="#FE7E59"/>
<path d="M121.876 142.276C121.842 142.182 121.815 142.086 121.794 141.989C121.794 141.928 121.746 141.859 121.726 141.798V141.982C121.726 142.358 121.555 142.508 121.282 142.501C121.009 142.494 120.845 142.344 120.852 141.969V140.89H120.401V141.989C120.388 142.109 120.401 142.23 120.44 142.344C120.478 142.457 120.542 142.561 120.625 142.648C120.708 142.735 120.81 142.802 120.922 142.845C121.035 142.888 121.155 142.906 121.275 142.897C121.413 142.907 121.551 142.883 121.678 142.829C121.805 142.774 121.918 142.69 122.005 142.583C121.948 142.487 121.904 142.384 121.876 142.276Z" fill="#FE7E59"/>
<path d="M121.978 141.354V142.037V142.105C121.999 142.156 122.018 142.209 122.033 142.262L122.094 142.508C122.141 142.718 122.154 142.935 122.135 143.15C122.224 143.061 122.294 142.954 122.34 142.836C122.386 142.719 122.407 142.593 122.401 142.467V141.368L121.978 141.354Z" fill="#FE7E59"/>
<path d="M124.088 143.402L123.719 142.856H123.303V143.402H122.852V141.443H123.699C124.217 141.443 124.545 141.723 124.538 142.167C124.542 142.299 124.503 142.429 124.429 142.538C124.354 142.647 124.246 142.73 124.122 142.774L124.552 143.409L124.088 143.402ZM123.685 141.812H123.316V142.494H123.685C123.958 142.494 124.101 142.371 124.108 142.16C124.115 141.948 123.965 141.777 123.685 141.777V141.812Z" fill="#FE7E59"/>
<path d="M124.927 141.422H125.378V143.382H124.927V141.422Z" fill="#FE7E59"/>
<path d="M126.245 141.812H125.617V141.443H127.317V141.812H126.689V143.402H126.231L126.245 141.812Z" fill="#FE7E59"/>
<path d="M128.457 142.72V143.402H128.006V142.72L127.269 141.45H127.754L128.259 142.33L128.798 141.47H129.242L128.457 142.72Z" fill="#FE7E59"/>
<path d="M123.569 147.84C123.451 147.685 123.359 147.512 123.296 147.328C123.145 146.993 122.947 146.488 122.729 145.86C122.177 144.214 121.788 142.517 121.568 140.794C121.348 139.074 121.3 137.336 121.425 135.606C121.48 134.923 121.548 134.404 121.609 134.036C121.62 133.842 121.667 133.652 121.746 133.476C121.8 133.476 121.746 134.295 121.678 135.613C121.563 139.05 121.998 142.485 122.968 145.785C123.203 146.459 123.404 147.145 123.569 147.84Z" fill="#263238"/>
<g opacity="0.3">
<path d="M112.529 142.405C112.243 144.836 111.464 146.037 111.423 148.482C111.423 149.007 110.584 157.289 111.075 157.473C111.567 157.657 113.806 151.67 114.318 148.666C114.694 146.311 115.356 143.204 115.752 140.863C116.899 134.001 119.445 130.308 123.016 124.334C123.699 123.208 126.211 120.129 126.211 120.129C125.972 119.972 124.968 120.45 124.272 120.764C122.258 121.672 118.653 124.546 118.653 124.546C117.585 126.569 116.619 128.645 115.759 130.765C114.383 134.695 113.286 138.717 112.475 142.801" fill="black"/>
</g>
<g opacity="0.3">
<path d="M89.9865 121.556C89.9865 121.556 87.7882 122.757 87.8018 123.727C87.852 124.209 88.0253 124.67 88.3051 125.065C88.5849 125.461 88.9617 125.778 89.3994 125.986C90.2851 126.386 91.1976 126.724 92.1302 126.997C94.2322 127.899 96.1158 129.242 97.6533 130.936C100.292 133.591 102.602 136.552 104.535 139.757C106.139 142.419 107.607 145.389 110.29 146.959C108.474 143.709 106.59 140.562 104.774 137.313C102.96 134.071 100.861 130.998 98.4998 128.13C96.1377 125.263 92.2872 121.788 89.9933 121.556" fill="black"/>
</g>
<path d="M82.1694 169.529C82.1617 169.471 82.1617 169.411 82.1694 169.352C82.1525 169.177 82.1525 169.001 82.1694 168.826C82.2407 168.158 82.4752 167.518 82.8521 166.962C83.4126 166.08 84.2894 165.445 85.303 165.187C85.9556 165.027 86.6364 165.019 87.2925 165.164C87.9485 165.31 88.5621 165.605 89.0852 166.027L88.819 166.157C88.7238 163.857 88.8611 161.554 89.2286 159.282C89.57 157.036 89.9864 154.92 90.2185 152.981C90.4404 151.259 90.5748 149.527 90.6213 147.792C90.6623 146.311 90.6213 145.109 90.6213 144.283C90.6213 143.901 90.6213 143.6 90.6213 143.327C90.6037 143.216 90.6037 143.103 90.6213 142.993C90.6533 143.099 90.6694 143.209 90.6691 143.32C90.6691 143.58 90.7169 143.901 90.7442 144.276C90.8057 145.109 90.8466 146.324 90.8398 147.799C90.8288 149.542 90.7194 151.284 90.5121 153.015C90.2936 154.974 89.8908 157.111 89.5427 159.337C89.1794 161.593 89.0331 163.879 89.1057 166.164V166.526L88.8258 166.293C88.3427 165.897 87.7752 165.617 87.167 165.474C86.5588 165.33 85.9259 165.328 85.3167 165.467C84.3548 165.693 83.5136 166.273 82.9614 167.092C82.6035 167.623 82.3701 168.227 82.2787 168.86C82.1694 169.284 82.1694 169.529 82.1694 169.529Z" fill="#263238"/>
<path d="M83.8691 186.167C83.9488 186.22 84.0221 186.282 84.0876 186.351C84.2378 186.508 84.4358 186.7 84.6816 186.939C85.2141 187.437 85.9924 188.174 87.0437 189.028C88.304 190.054 89.6339 190.991 91.0239 191.834C91.8608 192.359 92.7454 192.805 93.666 193.165C94.1497 193.355 94.6704 193.432 95.1884 193.39C95.7147 193.356 96.2124 193.139 96.5948 192.776L96.6972 192.666L96.8133 192.748C97.3799 193.192 97.9944 193.663 98.6225 194.114H98.4245L106.487 188.058L106.453 188.311L106.31 188.133C103.879 185.102 101.708 182.112 99.6943 179.429C97.6803 176.746 95.8575 174.322 94.2804 172.335C92.7034 170.349 91.3721 168.778 90.4163 167.734C89.9452 167.208 89.5561 166.812 89.2967 166.546C89.1554 166.418 89.0274 166.276 88.9143 166.123C89.0685 166.235 89.2124 166.361 89.3445 166.498C89.6244 166.744 90.0272 167.126 90.5187 167.638C91.5086 168.662 92.8741 170.199 94.4784 172.178C96.0828 174.158 97.9329 176.548 99.9401 179.231C101.947 181.914 104.152 184.89 106.576 187.908L106.713 188.085L106.829 188.229L106.685 188.338L98.6088 194.38L98.5064 194.455L98.404 194.38L96.6016 192.974H96.8269C96.3835 193.387 95.8076 193.629 95.2021 193.656C94.641 193.697 94.078 193.608 93.5568 193.397C92.6219 193.026 91.7237 192.569 90.8737 192.031C89.4962 191.166 88.1841 190.201 86.9482 189.144C86.1407 188.462 85.3683 187.739 84.6338 186.979L84.0671 186.365C83.9936 186.307 83.9272 186.241 83.8691 186.167Z" fill="#263238"/>
<path d="M90.3618 135.968C90.3003 135.968 90.0409 135.182 89.3787 133.995C88.9946 133.3 88.5515 132.64 88.0542 132.022C87.4377 131.265 86.752 130.568 86.0061 129.939C85.253 129.327 84.4464 128.783 83.5961 128.314C82.897 127.94 82.1687 127.622 81.4183 127.365C80.128 126.935 79.2814 126.826 79.2951 126.758C79.4942 126.728 79.6967 126.728 79.8959 126.758C80.4373 126.822 80.9719 126.934 81.4934 127.092C82.2731 127.322 83.0297 127.623 83.7532 127.994C84.6327 128.454 85.463 129.003 86.2314 129.632C86.9845 130.278 87.6706 130.999 88.2795 131.783C88.7745 132.422 89.2067 133.108 89.5698 133.831C89.8178 134.318 90.0256 134.825 90.1911 135.346C90.2795 135.543 90.337 135.753 90.3618 135.968Z" fill="#263238"/>
<g opacity="0.3">
<path d="M122.94 146.133C123.166 146.618 123.964 146.317 124.06 145.935C124.127 145.529 124.039 145.112 123.814 144.768C122.54 142.313 121.776 139.626 121.568 136.869C121.267 140.022 121.738 143.202 122.94 146.133Z" fill="black"/>
</g>
<g opacity="0.3">
<path d="M81.8621 168.813C81.5807 167.85 81.6295 166.821 82.0006 165.889C82.3718 164.958 83.044 164.177 83.9103 163.672C84.3501 163.407 84.858 163.276 85.3713 163.296C86.4772 163.378 87.2692 164.361 87.9177 165.256C87.3026 165.072 86.656 165.02 86.0193 165.101C85.3826 165.182 84.7698 165.395 84.2203 165.727C83.6708 166.058 83.1966 166.501 82.8281 167.027C82.4597 167.552 82.205 168.149 82.0806 168.779" fill="black"/>
</g>
<path d="M135.195 127.529C134.918 128.127 134.611 128.711 134.274 129.277C133.531 130.68 132.909 132.144 132.417 133.653C131.929 135.165 131.57 136.716 131.345 138.289C131.286 138.947 131.191 139.601 131.058 140.248C130.976 139.586 130.976 138.917 131.058 138.255C131.381 135.039 132.404 131.932 134.055 129.154C134.365 128.566 134.748 128.02 135.195 127.529Z" fill="#263238"/>
<path opacity="0.3" d="M130.683 144.863C130.321 145.239 130.218 148.42 130.218 148.42C130.218 152.264 130.464 153.95 130.471 157.787C130.543 159.374 130.401 160.963 130.048 162.511C129.805 163.317 129.504 164.104 129.147 164.867C128.753 165.857 128.254 166.803 127.658 167.686C127.113 168.388 126.512 169.045 125.863 169.652C122.826 172.67 120.061 175.951 117.602 179.456L116.1 181.634L130.997 167.659L131.727 165.816L131.768 165.597L130.683 144.863Z" fill="black"/>
<path d="M135.817 124.532C135.817 124.532 138.165 125.42 139.387 130.677C140.8 136.725 142.651 146.775 142.937 150.584C143.176 153.786 146.351 165.488 143.886 170.642C141.422 175.797 129.7 191.704 125.057 192.216L123.118 191.724L121.07 192.072L115.37 185.505L115.868 183.627C115.684 183.33 115.586 182.987 115.586 182.637C115.586 182.288 115.684 181.945 115.868 181.648C116.551 180.712 131.092 167.044 131.092 167.044C131.092 167.044 130.533 166.976 130.41 166.034C130.205 164.409 131.618 164.464 131.618 164.464L130.676 150.161L135.817 124.532Z" fill="#5D1393"/>
<path d="M136.697 168.717C136.636 168.806 135.564 168.034 134.042 167.556C132.519 167.079 131.202 167.058 131.202 166.949C132.191 166.764 133.211 166.856 134.151 167.215C135.124 167.466 136.007 167.986 136.697 168.717Z" fill="#263238"/>
<path d="M139.64 166.573C138.521 165.701 137.239 165.062 135.87 164.695C134.5 164.328 133.07 164.24 131.666 164.437C132.05 164.251 132.468 164.145 132.894 164.122C134.967 163.892 137.051 164.451 138.732 165.686C139.091 165.917 139.4 166.219 139.64 166.573Z" fill="#263238"/>
<path d="M131.202 166.949C131.202 166.949 130.963 166.949 130.662 166.744C130.484 166.604 130.351 166.414 130.28 166.198C130.205 165.932 130.205 165.651 130.28 165.385C130.325 165.21 130.396 165.042 130.492 164.887V164.921C130.572 164.746 130.699 164.596 130.859 164.488C131.02 164.381 131.207 164.32 131.4 164.314C131.673 164.314 131.816 164.375 131.809 164.416C131.803 164.457 131.659 164.457 131.441 164.532C131.306 164.563 131.181 164.624 131.073 164.71C130.965 164.796 130.879 164.906 130.819 165.03C130.751 165.161 130.697 165.298 130.656 165.44C130.597 165.625 130.587 165.821 130.625 166.011C130.663 166.201 130.749 166.378 130.874 166.526C131.038 166.792 131.229 166.901 131.202 166.949Z" fill="#263238"/>
<path d="M130.539 144.167C130.615 144.425 130.658 144.691 130.669 144.959C130.73 145.471 130.799 146.215 130.867 147.13C131.017 148.966 131.16 151.506 131.283 154.312C131.406 157.118 131.509 159.582 131.591 161.501C131.625 162.361 131.652 163.092 131.672 163.679C131.702 163.944 131.702 164.212 131.672 164.477C131.597 164.22 131.554 163.954 131.543 163.686C131.481 163.173 131.413 162.436 131.345 161.515C131.195 159.678 131.058 157.138 130.935 154.332C130.812 151.526 130.71 149.062 130.628 147.144C130.594 146.283 130.56 145.56 130.539 144.966C130.51 144.7 130.51 144.432 130.539 144.167Z" fill="#263238"/>
<path d="M131.44 166.853C131.33 166.981 131.209 167.1 131.079 167.208L130 168.178L126.006 171.803C124.327 173.353 122.326 175.216 120.128 177.374C119.029 178.439 117.868 179.586 116.714 180.787C116.423 181.074 116.176 181.403 115.984 181.764C115.813 182.128 115.77 182.539 115.861 182.931C115.98 183.377 116.051 183.835 116.073 184.296C116.084 184.556 116.022 184.813 115.892 185.038C115.763 185.263 115.572 185.446 115.342 185.566L115.41 185.286C116.353 186.372 117.349 187.498 118.353 188.652L121.248 191.963L121.084 191.874L123.132 191.526C124.019 191.636 124.764 192.045 125.535 191.915C126.288 191.775 126.992 191.447 127.583 190.96C128.737 190.023 129.825 189.007 130.84 187.922C132.799 185.874 134.397 183.914 135.714 182.282C137.032 180.651 138.056 179.306 138.766 178.398C139.114 177.961 139.38 177.613 139.585 177.353C139.675 177.228 139.775 177.112 139.886 177.005C139.818 177.141 139.736 177.27 139.64 177.387L138.868 178.466C138.186 179.401 137.189 180.76 135.892 182.419C134.595 184.078 133.011 186.051 131.058 188.126C130.04 189.236 128.945 190.271 127.781 191.226C127.138 191.754 126.369 192.107 125.549 192.25C124.661 192.393 123.842 191.95 123.07 191.868H123.132L121.084 192.216H120.981L120.92 192.141L118.025 188.836L115.083 185.464L114.919 185.273L115.151 185.184C115.318 185.092 115.456 184.953 115.546 184.785C115.637 184.616 115.678 184.426 115.663 184.235C115.638 183.806 115.57 183.38 115.458 182.965C115.362 182.505 115.417 182.026 115.615 181.6C115.825 181.208 116.095 180.851 116.414 180.542C117.611 179.34 118.765 178.202 119.875 177.128C122.094 174.991 124.108 173.134 125.815 171.605C127.522 170.076 128.914 168.874 129.911 168.062L131.031 167.14C131.158 167.032 131.295 166.936 131.44 166.853Z" fill="#263238"/>
<path d="M131.092 158.654C131.092 158.756 121.787 158.702 110.31 158.538C98.8341 158.374 89.5288 158.156 89.5288 158.06C89.5288 157.964 98.8341 158.012 110.317 158.183C121.8 158.354 131.092 158.558 131.092 158.654Z" fill="#263238"/>
<path d="M120.401 164.286C120.41 164.375 120.41 164.464 120.401 164.553C120.401 164.723 120.353 164.976 120.278 165.297C120.087 166.205 119.813 167.094 119.459 167.952C118.299 170.818 116.352 173.297 113.843 175.103C111.334 176.909 108.365 177.969 105.279 178.159C104.353 178.219 103.423 178.196 102.501 178.091C102.173 178.056 101.927 178.002 101.757 177.975C101.669 177.965 101.584 177.942 101.504 177.906C102.754 177.984 104.008 177.984 105.259 177.906C108.28 177.654 111.176 176.585 113.636 174.814C116.097 173.042 118.029 170.635 119.227 167.85C119.69 166.687 120.082 165.497 120.401 164.286Z" fill="#263238"/>
<path d="M100.493 192.817C100.432 192.892 100.043 192.673 99.6878 192.264C99.3328 191.854 99.1826 191.444 99.2645 191.39C99.3464 191.335 99.6263 191.649 99.9472 192.031C100.268 192.414 100.555 192.742 100.493 192.817Z" fill="#263238"/>
<path d="M103.094 190.782C103.019 190.844 102.726 190.584 102.412 190.202C102.097 189.82 101.961 189.458 102.043 189.403C102.125 189.349 102.418 189.608 102.726 189.99C103.033 190.373 103.176 190.728 103.094 190.782Z" fill="#263238"/>
<path d="M118.196 185.314C118.244 185.402 117.855 185.682 117.363 185.996C116.872 186.31 116.462 186.577 116.401 186.502C116.339 186.427 116.66 186.044 117.165 185.703C117.67 185.361 118.155 185.225 118.196 185.314Z" fill="#263238"/>
<path d="M120.134 187.212C120.216 187.266 119.977 187.785 119.452 188.27C118.926 188.755 118.434 188.987 118.387 188.905C118.339 188.823 118.742 188.475 119.199 188.017C119.657 187.56 120.052 187.157 120.134 187.212Z" fill="#263238"/>
<path d="M121.991 189.485C122.06 189.553 121.759 189.99 121.254 190.386C120.749 190.782 120.257 190.98 120.21 190.898C120.162 190.816 120.551 190.489 121.036 190.106C121.52 189.724 121.916 189.417 121.991 189.485Z" fill="#263238"/>
<path d="M95.5024 116.824C95.6048 116.784 96.4173 118.873 97.81 121.16C99.2027 123.447 100.609 125.181 100.541 125.256C100.159 124.954 99.8197 124.603 99.5304 124.211C98.7912 123.307 98.1203 122.348 97.5233 121.344C96.9213 120.342 96.3986 119.294 95.9599 118.21C95.7419 117.773 95.5879 117.306 95.5024 116.824Z" fill="#263238"/>
<path d="M136.697 208.539C136.504 208.551 136.31 208.551 136.117 208.539H134.465L128.382 208.594C123.248 208.655 116.155 208.847 108.324 209.086C100.493 209.325 93.3864 209.482 88.2524 209.475C85.6786 209.475 83.6031 209.475 82.1695 209.42L80.5105 209.372C80.3185 209.376 80.1265 209.363 79.937 209.331C80.127 209.305 80.3187 209.294 80.5105 209.297H82.1695L88.2456 209.236C93.3864 209.174 100.473 208.983 108.31 208.744C116.148 208.505 123.241 208.355 128.382 208.355C130.949 208.355 133.031 208.355 134.465 208.41L136.117 208.464C136.312 208.472 136.507 208.497 136.697 208.539Z" fill="#263238"/>
<path d="M118.127 193.383C118.279 193.619 118.494 193.808 118.747 193.929C119 194.049 119.282 194.097 119.561 194.066C120.121 194.066 120.66 193.861 121.213 193.834C121.49 193.794 121.772 193.83 122.029 193.938C122.286 194.046 122.509 194.223 122.674 194.448C122.775 194.645 122.824 194.864 122.817 195.085C122.81 195.306 122.747 195.522 122.633 195.711C122.394 196.085 122.063 196.391 121.671 196.599C120.747 197.117 119.687 197.34 118.633 197.239C117.578 197.138 116.58 196.717 115.772 196.032" fill="#B78876"/>
<path d="M105.614 201.869C107.222 203.471 108.99 204.903 110.891 206.143C111.277 206.455 111.76 206.622 112.257 206.614C112.755 206.532 113.144 205.884 112.816 205.508C113.075 205.708 113.39 205.821 113.717 205.829C114.043 205.838 114.364 205.742 114.632 205.556C114.879 205.367 115.063 205.109 115.162 204.815C115.26 204.52 115.268 204.203 115.185 203.904C115.184 203.896 115.184 203.887 115.187 203.879C115.19 203.872 115.194 203.865 115.201 203.859C115.207 203.854 115.214 203.85 115.222 203.848C115.23 203.846 115.239 203.847 115.247 203.849C115.489 203.947 115.749 203.988 116.009 203.97C116.27 203.952 116.522 203.876 116.749 203.747C116.985 203.599 117.167 203.379 117.268 203.12C117.369 202.86 117.383 202.575 117.309 202.306C117.814 202.989 119.029 202.723 119.418 201.965C119.577 201.569 119.624 201.136 119.554 200.715C119.484 200.294 119.3 199.899 119.022 199.575C118.455 198.94 117.821 198.368 117.131 197.869C116.439 197.367 115.938 196.645 115.711 195.821" fill="#B78876"/>
<path d="M113.055 205.795C112.354 205.596 111.729 205.192 111.26 204.634C110.704 204.161 110.307 203.53 110.12 202.825C110.208 202.777 110.7 203.576 111.485 204.388C112.27 205.201 113.11 205.699 113.055 205.795Z" fill="#AA6550"/>
<path d="M115.622 204.211C114.993 203.985 114.435 203.596 114.004 203.085C113.492 202.657 113.099 202.104 112.864 201.48C112.953 201.419 113.499 202.088 114.23 202.846C114.96 203.603 115.663 204.122 115.622 204.211Z" fill="#AA6550"/>
<path d="M117.834 202.634C117.231 202.439 116.694 202.079 116.284 201.596C115.792 201.196 115.417 200.67 115.199 200.074C115.281 200.012 115.813 200.647 116.564 201.344C117.315 202.04 117.895 202.552 117.834 202.634Z" fill="#AA6550"/>
<path d="M101.135 186.413C101.135 186.413 100.93 185.539 103.183 185.819C105.084 186.157 107.017 186.281 108.945 186.188C111.464 186.058 115.554 185.341 115.554 185.341L122.128 191.13C122.128 191.13 115.404 197.036 113.39 198.087C111.376 199.139 107.286 201.76 104.951 201.637C103.183 201.542 103.026 200.661 103.026 200.661C103.026 200.661 101.292 199.473 101.552 198.893C101.552 198.893 99.5034 198.777 99.8857 197.206C99.8857 197.206 98.4179 196.933 98.1789 196.1C97.94 195.268 99.046 194.284 99.4761 193.861C100.159 193.178 106.139 188.796 106.167 188.673C106.153 188.7 101.039 188.188 101.135 186.413Z" fill="#B78876"/>
<path d="M105.381 192.823C104.565 193.677 103.664 194.446 102.692 195.117C101.795 195.895 100.823 196.581 99.79 197.165C100.605 196.308 101.507 195.537 102.48 194.865C103.379 194.092 104.35 193.408 105.381 192.823Z" fill="#AA6550"/>
<path d="M108.542 193.438C108.339 193.835 108.074 194.197 107.757 194.51C106.336 196.119 104.63 197.452 102.726 198.442C102.346 198.673 101.931 198.842 101.497 198.941C101.442 198.845 103.258 197.951 105.204 196.428C107.15 194.906 108.46 193.363 108.542 193.438Z" fill="#AA6550"/>
<path d="M111.369 195.466C111.142 195.912 110.842 196.318 110.481 196.667C108.829 198.461 106.696 199.743 104.337 200.361C103.86 200.52 103.359 200.596 102.855 200.586C104.467 200.11 106.021 199.46 107.491 198.647C108.897 197.732 110.197 196.665 111.369 195.466Z" fill="#AA6550"/>
<path d="M119.398 193.581C119.253 193.771 119.085 193.943 118.899 194.093C118.565 194.407 118.066 194.844 117.431 195.356C115.772 196.696 114.014 197.91 112.175 198.988C111.096 199.616 110.044 200.176 109.068 200.64C108.207 201.098 107.289 201.437 106.337 201.651C105.693 201.8 105.023 201.8 104.378 201.651C104.131 201.61 103.897 201.512 103.695 201.364C104.533 201.597 105.418 201.597 106.255 201.364C107.167 201.114 108.047 200.759 108.877 200.306C109.833 199.828 110.877 199.261 111.942 198.64C113.769 197.566 115.533 196.39 117.227 195.117C118.585 194.182 119.357 193.54 119.398 193.581Z" fill="#AA6550"/>
<path d="M107.354 78.7976C105.795 78.6537 104.222 78.8216 102.729 79.2917C101.235 79.7618 99.8494 80.5246 98.6535 81.5356C97.4575 82.5467 96.4748 83.7857 95.7627 85.1805C95.0506 86.5753 94.6233 88.0979 94.5058 89.6595C94.0962 95.1212 93.707 101.054 93.7002 104.044C93.7002 110.448 100.084 111.554 100.084 111.554C100.084 111.554 99.8992 113.452 99.6875 115.807C99.5888 116.931 99.7162 118.062 100.062 119.136C100.408 120.209 100.966 121.202 101.702 122.056C102.439 122.91 103.339 123.608 104.35 124.108C105.36 124.609 106.461 124.901 107.586 124.969C108.693 125.038 109.803 124.887 110.851 124.525C111.899 124.164 112.866 123.599 113.696 122.864C114.525 122.128 115.202 121.236 115.686 120.238C116.17 119.24 116.452 118.157 116.516 117.05L118.046 91.2571C118.229 88.1996 117.216 85.1908 115.22 82.8669C113.225 80.543 110.404 79.0861 107.354 78.8045V78.7976Z" fill="#B78876"/>
<path d="M100.076 111.445C103.033 111.544 105.952 110.76 108.46 109.192C108.46 109.192 106.316 113.821 99.9331 113.151L100.076 111.445Z" fill="#AA6550"/>
<path d="M117.424 93.4417C117.534 93.3939 121.848 92.1992 121.644 96.5822C121.439 100.965 117.09 99.8524 117.083 99.7226C117.076 99.5929 117.424 93.4417 117.424 93.4417Z" fill="#B78876"/>
<path d="M118.496 98.1319C118.496 98.1319 118.571 98.1866 118.701 98.248C118.788 98.2923 118.883 98.3188 118.98 98.3258C119.078 98.3329 119.175 98.3203 119.268 98.289C119.558 98.122 119.8 97.8813 119.968 97.5912C120.135 97.3012 120.224 96.9719 120.224 96.6368C120.249 96.2629 120.193 95.888 120.06 95.5377C120.023 95.3995 119.955 95.2718 119.86 95.1651C119.765 95.0583 119.646 94.9755 119.514 94.9232C119.426 94.8965 119.332 94.901 119.247 94.9358C119.163 94.9707 119.093 95.0338 119.049 95.1144C118.988 95.2304 119.008 95.3192 118.988 95.326C118.967 95.3328 118.899 95.2509 118.94 95.0666C118.969 94.9593 119.034 94.8653 119.124 94.8003C119.251 94.7169 119.405 94.6851 119.554 94.7116C119.728 94.7536 119.889 94.8379 120.022 94.957C120.156 95.0761 120.258 95.2263 120.319 95.3943C120.487 95.781 120.557 96.203 120.524 96.6232C120.527 97.0144 120.414 97.3978 120.2 97.7256C119.987 98.0534 119.681 98.311 119.322 98.4665C119.204 98.4924 119.082 98.4924 118.964 98.4665C118.847 98.4405 118.736 98.3893 118.64 98.3163C118.503 98.2343 118.483 98.1388 118.496 98.1319Z" fill="#AA6550"/>
<path d="M96.9908 93.155C96.987 93.3937 97.0759 93.6246 97.2389 93.7991C97.4019 93.9735 97.6263 94.0779 97.8647 94.0903C97.9808 94.1015 98.098 94.0892 98.2092 94.0541C98.3204 94.019 98.4234 93.9618 98.512 93.8859C98.6006 93.8101 98.673 93.7171 98.7248 93.6126C98.7766 93.5082 98.8069 93.3943 98.8137 93.2779C98.8211 93.0393 98.7343 92.8074 98.572 92.6324C98.4097 92.4573 98.1851 92.3532 97.9466 92.3426C97.8304 92.3323 97.7132 92.3452 97.602 92.3806C97.4908 92.416 97.3877 92.4732 97.2988 92.5488C97.2098 92.6244 97.1368 92.7169 97.0839 92.821C97.0311 92.925 96.9994 93.0386 96.9908 93.155Z" fill="#263238"/>
<path d="M96.1239 91.9671C96.2331 92.09 96.9363 91.5848 97.9194 91.6052C98.9025 91.6257 99.6193 92.1241 99.7286 92.0012C99.8378 91.8783 99.6671 91.735 99.3531 91.5028C98.9347 91.1976 98.4304 91.0327 97.9126 91.0318C97.4004 91.0218 96.8984 91.1748 96.4789 91.4687C96.1717 91.7008 96.0693 91.9125 96.1239 91.9671Z" fill="#263238"/>
<path d="M106.856 93.4212C106.85 93.6593 106.937 93.8902 107.099 94.0649C107.261 94.2395 107.485 94.3442 107.723 94.3566C107.839 94.3678 107.956 94.3557 108.067 94.3211C108.178 94.2865 108.281 94.23 108.37 94.1549C108.459 94.0799 108.532 93.9878 108.585 93.8841C108.638 93.7804 108.67 93.6671 108.679 93.551C108.686 93.3117 108.599 93.0791 108.437 92.9029C108.275 92.7268 108.051 92.6212 107.812 92.6088C107.695 92.5986 107.578 92.6115 107.467 92.6469C107.356 92.6823 107.253 92.7395 107.164 92.8151C107.075 92.8907 107.002 92.9832 106.949 93.0872C106.896 93.1913 106.864 93.3048 106.856 93.4212Z" fill="#263238"/>
<path d="M105.798 92.288C105.907 92.4109 106.611 91.9057 107.594 91.9261C108.577 91.9466 109.294 92.445 109.403 92.3289C109.512 92.2129 109.341 92.0558 109.027 91.8237C108.608 91.5205 108.104 91.3559 107.587 91.3527C107.074 91.3413 106.57 91.497 106.153 91.7964C105.846 92.0217 105.744 92.2334 105.798 92.288Z" fill="#263238"/>
<path d="M102.118 99.5383C101.601 99.3693 101.064 99.2661 100.521 99.2311C100.275 99.2311 100.036 99.1492 99.9948 98.9717C99.9796 98.7137 100.041 98.4571 100.172 98.2343L100.944 96.3296C102.016 93.5988 102.794 91.3868 102.685 91.3458C102.575 91.3049 101.62 93.4622 100.548 96.1726L99.8105 98.091C99.6453 98.3904 99.5921 98.7389 99.6603 99.0741C99.6984 99.1619 99.7546 99.2407 99.8252 99.3054C99.8958 99.3701 99.9791 99.4192 100.07 99.4496C100.21 99.4897 100.354 99.5126 100.5 99.5178C101.036 99.5988 101.58 99.6057 102.118 99.5383Z" fill="#263238"/>
<path d="M104.658 88.7242C104.774 88.9837 105.75 88.7925 106.911 88.8608C108.071 88.9291 109.027 89.1748 109.164 88.9222C109.225 88.8062 109.041 88.5672 108.652 88.3283C108.13 88.0406 107.547 87.8793 106.952 87.8572C106.359 87.8258 105.767 87.9358 105.225 88.1781C104.808 88.3761 104.61 88.6014 104.658 88.7242Z" fill="#263238"/>
<path d="M95.755 88.3419C95.9256 88.5672 96.6015 88.3419 97.4208 88.3419C98.24 88.3419 98.9227 88.5194 99.0866 88.2873C99.1549 88.1712 99.0524 87.9459 98.7521 87.7343C98.3515 87.4735 97.8822 87.3381 97.4043 87.3454C96.9264 87.3527 96.4615 87.5024 96.069 87.7752C95.7755 88.0005 95.6799 88.2327 95.755 88.3419Z" fill="#263238"/>
<path d="M117.93 93.2437C117.983 93.9476 117.937 94.6555 117.793 95.3465C117.729 95.6782 117.593 95.9919 117.395 96.2655C117.197 96.5391 116.941 96.7661 116.646 96.9304C115.54 97.4629 114.175 96.6027 113.697 95.4694C113.219 94.3361 113.376 93.0526 113.506 91.8237C113.745 90.1619 113.745 88.4744 113.506 86.8126C113.261 85.1366 112.431 83.6012 111.164 82.4774C110.523 81.9321 109.744 81.5741 108.913 81.4429C108.082 81.3116 107.231 81.4121 106.453 81.7333C105.518 82.177 104.808 82.9826 103.934 83.5356C103.155 84.0628 102.211 84.2863 101.278 84.1637C100.357 84.0067 99.1142 83.3581 99.2712 82.4433C99.633 80.3064 98.1515 82.1019 98.2471 81.7606C98.411 81.1598 99.6467 80.1153 100.159 79.7125C101.033 79.0992 102.038 78.6993 103.094 78.545C105.916 78.074 108.813 78.4027 111.458 79.494C114.113 80.5354 116.252 82.5809 117.411 85.1878C118.64 88.2054 118.448 90.035 118.032 93.2847" fill="#263238"/>
<path d="M104.2 102.44C104.2 102.638 103.395 102.836 102.378 102.89C101.36 102.945 100.521 102.836 100.507 102.638C100.493 102.44 101.319 102.235 102.337 102.18C103.354 102.126 104.194 102.256 104.2 102.44Z" fill="#263238"/>
<path d="M117.916 93.6329C117.448 93.6052 116.988 93.5062 116.55 93.3393C115.738 93.0935 114.646 92.6566 113.451 92.206L110.406 90.9772C109.966 90.8489 109.542 90.6702 109.143 90.4446C109.61 90.4764 110.07 90.5753 110.508 90.7382C111.321 90.984 112.413 91.4209 113.608 91.8715L116.653 93.1004C117.094 93.2271 117.518 93.4058 117.916 93.6329Z" fill="#263238"/>
<path d="M99.7012 89.8507C99.9844 89.8824 100.25 90.0055 100.456 90.2013C100.663 90.3972 100.801 90.6552 100.848 90.9362C101.054 92.267 100.76 93.6269 100.025 94.7547C99.2887 95.8825 98.1621 96.6986 96.8611 97.0464C96.4503 97.1785 96.0168 97.2255 95.5872 97.1844C95.1576 97.1433 94.7408 97.0151 94.3624 96.8075C93.3452 96.1657 92.997 94.8344 92.9424 93.6329C92.808 92.7569 92.9613 91.861 93.3793 91.0796C93.7336 90.6413 94.1837 90.2903 94.6951 90.0536C95.2064 89.8169 95.7653 89.7007 96.3286 89.7141C97.4544 89.7029 98.58 89.7484 99.7012 89.8507Z" fill="#263238"/>
<path d="M104.849 90.0077C104.561 90.0313 104.288 90.149 104.074 90.3427C103.859 90.5364 103.714 90.7953 103.661 91.0796C103.412 92.4182 103.668 93.8014 104.379 94.9625C105.09 96.1235 106.206 96.9802 107.511 97.3673C107.923 97.5125 108.359 97.5728 108.795 97.5447C109.23 97.5165 109.655 97.4004 110.044 97.2034C111.096 96.5754 111.451 95.2373 111.574 94.0289C111.738 93.1471 111.608 92.2356 111.205 91.4346C110.86 90.9804 110.415 90.6118 109.905 90.3573C109.395 90.1027 108.833 89.9691 108.262 89.9668C107.129 89.878 104.849 90.0077 104.849 90.0077Z" fill="#263238"/>
<path d="M105.887 90.1852C104.642 90.3437 103.384 90.3803 102.132 90.2944C100.875 90.3227 99.6185 90.2382 98.377 90.0418C99.6243 89.8832 100.884 89.8466 102.139 89.9326C103.393 89.9045 104.647 89.9891 105.887 90.1852Z" fill="#263238"/>
<path d="M117.67 119.241C117.67 119.241 117.67 119.207 117.67 119.139C117.657 119.032 117.657 118.925 117.67 118.818C117.744 118.418 117.887 118.035 118.093 117.685C118.416 117.15 118.675 116.58 118.865 115.985C119.077 115.183 119.174 114.356 119.152 113.527C119.152 112.605 119.036 111.609 118.967 110.496C118.948 110.185 119.022 109.876 119.179 109.608C119.265 109.454 119.398 109.331 119.559 109.257C119.72 109.184 119.9 109.163 120.073 109.199C120.165 109.221 120.252 109.262 120.327 109.32C120.402 109.377 120.465 109.45 120.51 109.533C120.567 109.621 120.597 109.723 120.597 109.827C120.597 109.931 120.567 110.033 120.51 110.12C120.384 110.262 120.215 110.359 120.028 110.395C119.842 110.431 119.649 110.404 119.479 110.318C119.158 110.162 118.901 109.899 118.752 109.574C118.604 109.248 118.574 108.882 118.667 108.536C118.759 108.178 118.974 107.864 119.274 107.649C119.43 107.532 119.614 107.459 119.807 107.437C119.916 107.42 120.028 107.43 120.133 107.466C120.237 107.501 120.332 107.562 120.408 107.642C120.492 107.725 120.55 107.83 120.577 107.945C120.604 108.059 120.597 108.179 120.558 108.291C120.504 108.396 120.422 108.485 120.321 108.547C120.22 108.608 120.103 108.64 119.984 108.639C119.785 108.642 119.588 108.603 119.405 108.524C119.222 108.445 119.058 108.328 118.924 108.18C118.79 108.033 118.688 107.859 118.626 107.67C118.564 107.481 118.543 107.28 118.564 107.082C118.601 106.881 118.681 106.69 118.799 106.522C118.917 106.355 119.07 106.215 119.247 106.113C119.541 105.932 119.892 105.868 120.23 105.935C120.408 105.981 120.568 106.076 120.694 106.208C120.768 106.281 120.821 106.372 120.848 106.471C120.876 106.57 120.877 106.675 120.852 106.775C120.822 106.873 120.769 106.962 120.696 107.033C120.623 107.105 120.533 107.157 120.435 107.185C120.272 107.235 120.099 107.249 119.93 107.226C119.614 107.179 119.316 107.046 119.07 106.843C118.813 106.657 118.621 106.394 118.521 106.093C118.42 105.792 118.416 105.467 118.51 105.164C118.62 104.873 118.826 104.628 119.095 104.471C119.363 104.313 119.677 104.252 119.984 104.297C120.156 104.323 120.315 104.403 120.438 104.526C120.561 104.649 120.641 104.808 120.667 104.979C120.674 105.069 120.661 105.159 120.629 105.242C120.597 105.326 120.547 105.402 120.483 105.464C120.359 105.573 120.203 105.64 120.039 105.655C119.746 105.659 119.462 105.554 119.24 105.362C119.027 105.194 118.852 104.982 118.728 104.741C118.6 104.499 118.561 104.219 118.62 103.951C118.679 103.683 118.831 103.445 119.049 103.28C119.161 103.202 119.29 103.154 119.425 103.139C119.56 103.123 119.696 103.141 119.822 103.191C119.949 103.241 120.061 103.321 120.148 103.425C120.236 103.529 120.297 103.652 120.326 103.785V103.88L120.244 103.921C120.097 103.998 119.936 104.043 119.771 104.054C119.606 104.065 119.441 104.042 119.285 103.986C119.129 103.931 118.987 103.843 118.866 103.73C118.746 103.616 118.65 103.479 118.585 103.327C118.53 103.184 118.509 103.031 118.522 102.878C118.535 102.726 118.582 102.578 118.66 102.447C118.798 102.201 119.014 102.008 119.274 101.9C119.524 101.798 119.803 101.798 120.053 101.9C120.178 101.946 120.284 102.033 120.352 102.148C120.42 102.262 120.447 102.397 120.428 102.529C120.415 102.595 120.386 102.657 120.343 102.71C120.3 102.762 120.245 102.803 120.182 102.829C120.068 102.871 119.942 102.871 119.827 102.829C119.733 102.782 119.65 102.714 119.586 102.63C119.522 102.546 119.479 102.448 119.459 102.344C119.376 101.808 119.376 101.262 119.459 100.726C119.474 100.538 119.513 100.352 119.575 100.173C119.501 100.883 119.519 101.599 119.629 102.303C119.644 102.382 119.677 102.455 119.725 102.518C119.774 102.581 119.837 102.632 119.909 102.665C119.941 102.683 119.977 102.693 120.014 102.695C120.05 102.696 120.087 102.689 120.12 102.674C120.153 102.658 120.183 102.635 120.205 102.607C120.228 102.578 120.244 102.544 120.251 102.508C120.326 102.16 119.752 101.941 119.377 102.139C119.16 102.221 118.984 102.383 118.883 102.591C118.783 102.8 118.767 103.039 118.838 103.259C118.89 103.374 118.965 103.477 119.059 103.562C119.152 103.647 119.261 103.713 119.38 103.755C119.499 103.797 119.626 103.815 119.752 103.807C119.878 103.799 120.001 103.766 120.114 103.71L120.046 103.846C120.021 103.764 119.977 103.688 119.918 103.626C119.859 103.563 119.785 103.516 119.704 103.487C119.623 103.459 119.536 103.45 119.451 103.461C119.365 103.472 119.284 103.504 119.213 103.553C119.057 103.68 118.952 103.858 118.916 104.056C118.879 104.253 118.915 104.457 119.015 104.631C119.106 104.827 119.245 104.997 119.419 105.125C119.593 105.253 119.797 105.334 120.012 105.362C120.196 105.362 120.367 105.191 120.339 105.041C120.316 104.947 120.265 104.862 120.193 104.797C120.122 104.731 120.032 104.688 119.937 104.672C119.705 104.642 119.471 104.694 119.274 104.818C119.077 104.943 118.93 105.133 118.858 105.355C118.79 105.59 118.798 105.84 118.88 106.07C118.962 106.301 119.114 106.499 119.315 106.638C119.513 106.798 119.748 106.904 119.998 106.946C120.23 106.946 120.503 106.898 120.531 106.748C120.558 106.597 120.387 106.4 120.162 106.352C119.925 106.31 119.682 106.359 119.479 106.488C119.353 106.56 119.243 106.659 119.157 106.776C119.071 106.894 119.011 107.028 118.981 107.171C118.962 107.318 118.977 107.468 119.024 107.609C119.072 107.749 119.15 107.877 119.254 107.983C119.35 108.093 119.469 108.18 119.602 108.238C119.736 108.297 119.88 108.327 120.025 108.325C120.319 108.325 120.38 108.113 120.217 107.915C120.053 107.717 119.752 107.799 119.534 107.963C119.303 108.131 119.134 108.371 119.056 108.646C118.991 108.909 119.017 109.187 119.128 109.434C119.239 109.682 119.43 109.885 119.67 110.011C119.896 110.113 120.21 110.086 120.305 109.936C120.401 109.786 120.305 109.547 120.066 109.492C119.956 109.475 119.842 109.492 119.742 109.543C119.641 109.593 119.559 109.673 119.507 109.772C119.385 109.978 119.325 110.215 119.336 110.455C119.391 111.527 119.493 112.564 119.479 113.5C119.484 114.348 119.365 115.192 119.124 116.005C118.925 116.613 118.642 117.189 118.285 117.719C118.071 118.051 117.912 118.415 117.813 118.797C117.67 119.098 117.67 119.241 117.67 119.241Z" fill="#E0E0E0"/>
<path d="M120.183 98.2889C120.153 97.9585 120.056 97.6377 119.896 97.3468C119.812 97.2039 119.698 97.0814 119.561 96.9881C119.424 96.8949 119.268 96.8332 119.104 96.8075C118.919 96.794 118.735 96.8405 118.579 96.9401C118.423 97.0398 118.303 97.1872 118.237 97.3605C118.185 97.5355 118.188 97.7222 118.245 97.8955C118.303 98.0688 118.412 98.2204 118.558 98.3299L118.633 98.3845C118.749 98.4528 118.913 98.4664 119.022 98.5347C119.132 98.6191 119.218 98.7311 119.271 98.8594C119.324 98.9878 119.341 99.1278 119.323 99.2652C119.288 99.5394 119.268 99.8151 119.261 100.091C119.261 100.289 119.391 100.521 119.589 100.528C119.787 100.535 119.889 100.358 119.957 100.201C120.21 99.5971 120.288 98.9347 120.183 98.2889Z" fill="#E0E0E0"/>
<path d="M99.9881 112.571C99.9881 112.571 98.6227 114.578 98.4998 115.889C98.4247 116.756 99.005 120.122 99.401 122.3C99.6315 123.55 100.12 124.738 100.835 125.788L101.722 127.092C103.009 128.971 104.081 130.989 104.917 133.107C106.651 137.49 109.56 144.863 109.696 145.211C110.081 146.091 110.512 146.95 110.987 147.785L112.529 129.386L117.172 120.183C117.582 119.384 117.814 118.507 117.855 117.61L117.964 114.66C118 113.576 117.613 112.521 116.885 111.718L116.653 114.38L108.959 121.371L100.022 115.363L99.9881 112.571Z" fill="white"/>
<path d="M108.509 121.433C107.857 121.801 107.304 122.321 106.897 122.948C106.011 124.537 105.382 126.256 105.034 128.041C104.979 128.246 104.931 128.451 104.883 128.642L104.815 128.915L104.597 128.731C103.305 127.621 102.098 126.416 100.985 125.126C100.499 124.63 100.054 124.096 99.6538 123.529C100.198 123.961 100.703 124.441 101.163 124.962C102.323 126.188 103.544 127.355 104.822 128.458L104.535 128.553L104.685 127.953C105.197 125.87 105.832 123.972 106.693 122.805C107.013 122.331 107.435 121.935 107.928 121.644C108.103 121.53 108.301 121.458 108.509 121.433Z" fill="#263238"/>
<path d="M114.004 126.389C113.502 127.373 112.922 128.316 112.27 129.209L111.99 129.632V129.113C111.933 128.264 111.772 127.425 111.512 126.614C111.253 125.261 110.792 123.954 110.147 122.737C109.818 122.276 109.453 121.842 109.055 121.44C109.055 121.44 109.212 121.494 109.464 121.672C109.809 121.93 110.111 122.241 110.359 122.593C111.086 123.803 111.595 125.132 111.861 126.519C112.132 127.361 112.284 128.236 112.311 129.12L112.024 129.024C112.615 128.096 113.277 127.215 114.004 126.389Z" fill="#263238"/>
<path d="M110.481 146.529C110.385 146.529 109.948 140.958 109.505 134.07C109.061 127.181 108.781 121.597 108.877 121.59C108.972 121.583 109.416 127.161 109.86 134.049C110.303 140.938 110.577 146.522 110.481 146.529Z" fill="#263238"/>
<path d="M93.2772 93.6397C93.1368 93.3981 93.0561 93.1265 93.0418 92.8475C93.0276 92.5684 93.0802 92.29 93.1953 92.0354C93.4888 91.141 94.1784 90.7177 94.2193 90.7997C94.2603 90.8816 93.7824 91.3663 93.5366 92.1651C93.2909 92.9638 93.3796 93.6192 93.2772 93.6397Z" fill="#E0E0E0"/>
<path d="M104.542 94.022C104.467 94.0835 104.016 93.5032 104.023 92.6566C104.03 91.8101 104.467 91.2093 104.542 91.2912C104.617 91.3731 104.371 91.9193 104.378 92.6566C104.385 93.3939 104.631 93.9742 104.542 94.022Z" fill="#E0E0E0"/>
</svg>
