<svg width="375" height="256" viewBox="0 0 375 256" fill="none" xmlns="http://www.w3.org/2000/svg">
<g clip-path="url(#clip0_232_1284)">
<path d="M249.781 22.9376L67.7757 61.4758C63.2782 62.4293 59.0544 64.3871 55.4203 67.203C51.7861 70.0188 48.8355 73.6198 46.7891 77.7367C44.7427 81.8536 43.6535 86.3798 43.6029 90.977C43.5523 95.5741 44.5417 100.123 46.497 104.284L103.867 226.304C107.106 233.192 112.804 238.62 119.841 241.52C126.879 244.42 134.746 244.583 141.898 241.976L292.861 186.993C299.94 184.414 305.815 179.306 309.35 172.653C312.886 166 313.834 158.273 312.01 150.963L285.688 45.3888C283.776 37.7248 278.965 31.1018 272.267 26.9141C265.57 22.7264 257.509 21.3009 249.781 22.9376Z" fill="#FE7E59"/>
<path d="M249.781 22.9376L67.7757 61.4758C63.2782 62.4293 59.0544 64.3871 55.4203 67.203C51.7861 70.0188 48.8355 73.6198 46.7891 77.7367C44.7427 81.8536 43.6535 86.3798 43.6029 90.977C43.5523 95.5741 44.5417 100.123 46.497 104.284L103.867 226.304C107.106 233.192 112.804 238.62 119.841 241.52C126.879 244.42 134.746 244.583 141.898 241.976L292.861 186.993C299.94 184.414 305.815 179.306 309.35 172.653C312.886 166 313.834 158.273 312.01 150.963L285.688 45.3888C283.776 37.7248 278.965 31.1018 272.267 26.9141C265.57 22.7264 257.509 21.3009 249.781 22.9376Z" fill="white"/>
<g opacity="0.3">
<path d="M296.082 93.8163C306.536 92.6733 314.084 83.2721 312.941 72.8182C311.798 62.3643 302.397 54.8163 291.943 55.9594C281.489 57.1024 273.941 66.5036 275.084 76.9575C276.227 87.4114 285.628 94.9594 296.082 93.8163Z" stroke="#5D1393" stroke-linecap="round" stroke-linejoin="round"/>
<path d="M308.306 82.6142C312.565 74.727 309.624 64.8803 301.737 60.621C293.85 56.3618 284.003 59.3028 279.744 67.19C275.485 75.0773 278.426 84.924 286.313 89.1832C294.2 93.4425 304.047 90.5015 308.306 82.6142Z" stroke="#5D1393" stroke-linecap="round" stroke-linejoin="round"/>
<path d="M300.925 78.1465C300.925 72.6886 293.184 72.5657 293.184 70.2873C293.184 69.0893 293.814 68.7257 295.104 68.7257C296.215 68.7257 297.152 69.207 298.222 70.1696L300.782 67.2256C299.6 65.9017 298.005 65.0173 296.256 64.7168V61.6448H292.882V64.8038C289.989 65.4285 288.274 67.4918 288.274 70.528C288.274 75.776 296.02 76.1088 296.02 78.5101C296.02 79.6774 295.416 80.1894 293.916 80.1894C292.657 80.1894 291.397 79.7081 289.774 78.5101L287.557 81.9917C289.079 83.2492 290.935 84.0356 292.897 84.2547V87.2704H296.261V84.0448C299.379 83.3024 300.925 81.0393 300.925 78.1465Z" stroke="#5D1393" stroke-linecap="round" stroke-linejoin="round"/>
</g>
<g opacity="0.3">
<path d="M305.359 184.735C310.155 184.735 314.043 180.847 314.043 176.051C314.043 171.255 310.155 167.368 305.359 167.368C300.564 167.368 296.676 171.255 296.676 176.051C296.676 180.847 300.564 184.735 305.359 184.735Z" stroke="#5D1393" stroke-linecap="round" stroke-linejoin="round"/>
<path d="M310.592 181.287C313.483 178.396 313.483 173.708 310.592 170.817C307.701 167.926 303.013 167.926 300.122 170.817C297.231 173.708 297.231 178.396 300.122 181.287C303.013 184.178 307.701 184.178 310.592 181.287Z" stroke="#5D1393" stroke-linecap="round" stroke-linejoin="round"/>
<path d="M308.508 177.536C308.508 175.048 304.975 174.976 304.975 173.952C304.975 173.404 305.262 173.24 305.85 173.24C306.393 173.268 306.904 173.502 307.279 173.896L308.441 172.554C307.904 171.956 307.184 171.552 306.393 171.407V170.01H304.857V171.448C304.235 171.538 303.669 171.859 303.272 172.346C302.874 172.833 302.675 173.452 302.712 174.08C302.712 176.476 306.245 176.64 306.245 177.72C306.245 178.258 305.968 178.488 305.287 178.488C304.59 178.45 303.925 178.18 303.398 177.72L302.374 179.313C303.069 179.885 303.916 180.241 304.811 180.337V181.714H306.347V180.224C306.973 180.117 307.539 179.785 307.937 179.29C308.335 178.794 308.538 178.171 308.508 177.536Z" stroke="#5D1393" stroke-linecap="round" stroke-linejoin="round"/>
</g>
<g opacity="0.3">
<path d="M149.362 38.0701C156.795 36.8809 161.857 29.8914 160.667 22.4586C159.478 15.0258 152.489 9.96439 145.056 11.1536C137.623 12.3428 132.562 19.3323 133.751 26.7651C134.94 34.1979 141.93 39.2594 149.362 38.0701Z" stroke="#5D1393" stroke-linecap="round" stroke-linejoin="round"/>
<path d="M157.02 30.8458C160.457 25.428 158.851 18.2498 153.433 14.8128C148.015 11.3759 140.837 12.9817 137.4 18.3996C133.963 23.8174 135.569 30.9956 140.987 34.4326C146.404 37.8695 153.583 36.2637 157.02 30.8458Z" stroke="#5D1393" stroke-linecap="round" stroke-linejoin="round"/>
<path d="M152.148 26.9517C152.148 23.0451 146.608 22.9581 146.608 21.3197C146.608 20.4646 147.059 20.2035 147.986 20.2035C148.834 20.242 149.635 20.6092 150.218 21.2275L152.041 19.1232C151.195 18.1738 150.052 17.5386 148.8 17.321V15.1398H146.393V17.408C145.434 17.5621 144.565 18.0657 143.954 18.8219C143.344 19.5781 143.034 20.5334 143.086 21.504C143.086 25.2621 148.626 25.4976 148.626 27.2179C148.626 28.0525 148.201 28.4211 147.125 28.4211C146.224 28.4211 145.318 28.0781 144.161 27.2179L142.574 29.696C143.66 30.6 144.988 31.1644 146.393 31.319V33.4848H148.8V31.1757C149.774 30.9959 150.651 30.4688 151.267 29.6921C151.882 28.9154 152.196 27.9417 152.148 26.9517Z" stroke="#5D1393" stroke-linecap="round" stroke-linejoin="round"/>
</g>
<g opacity="0.3">
<path d="M40.6377 187.021C45.3715 186.252 48.5861 181.792 47.8177 177.058C47.0493 172.324 42.5888 169.109 37.855 169.878C33.1212 170.646 29.9066 175.107 30.675 179.841C31.4434 184.574 35.9039 187.789 40.6377 187.021Z" stroke="#5D1393" stroke-linecap="round" stroke-linejoin="round"/>
<path d="M46.6401 178.452C46.6401 176.988 46.2058 175.557 45.3923 174.339C44.5788 173.122 43.4226 172.173 42.0697 171.613C40.7169 171.052 39.2283 170.906 37.7922 171.191C36.356 171.477 35.0369 172.182 34.0015 173.217C32.9661 174.253 32.2609 175.572 31.9753 177.008C31.6896 178.444 31.8362 179.933 32.3966 181.286C32.9569 182.638 33.9059 183.795 35.1234 184.608C36.3409 185.422 37.7723 185.856 39.2365 185.856C41.2001 185.856 43.0832 185.076 44.4716 183.688C45.86 182.299 46.6401 180.416 46.6401 178.452Z" stroke="#5D1393" stroke-linecap="round" stroke-linejoin="round"/>
<path d="M42.3855 179.942C42.3855 177.449 38.8578 177.382 38.8578 176.358C38.8578 175.811 39.1446 175.647 39.7334 175.647C40.2746 175.673 40.7846 175.908 41.1567 176.302L42.319 174.961C41.7836 174.361 41.0623 173.959 40.271 173.819V172.416H38.735V173.86C38.1224 173.957 37.5675 174.277 37.1778 174.76C36.7881 175.242 36.5913 175.852 36.6255 176.471C36.6255 178.862 40.1583 179.031 40.1583 180.111C40.1583 180.623 39.887 180.874 39.2009 180.874C38.5037 180.838 37.8388 180.569 37.3116 180.111L36.2876 181.699C36.9841 182.268 37.8305 182.624 38.7247 182.723V184.095H40.2607V182.63C40.8814 182.518 41.4397 182.183 41.8309 181.688C42.2221 181.193 42.4193 180.572 42.3855 179.942Z" stroke="#5D1393" stroke-linecap="round" stroke-linejoin="round"/>
</g>
<g opacity="0.3">
<path d="M256.954 225.928C261.696 225.215 264.963 220.793 264.25 216.05C263.537 211.308 259.114 208.041 254.372 208.754C249.629 209.467 246.363 213.89 247.076 218.632C247.789 223.375 252.211 226.641 256.954 225.928Z" stroke="#5D1393" stroke-linecap="round" stroke-linejoin="round"/>
<path d="M263.058 217.354C263.055 215.89 262.62 214.46 261.805 213.244C260.99 212.028 259.833 211.08 258.48 210.522C257.127 209.963 255.639 209.818 254.203 210.104C252.768 210.391 251.45 211.097 250.415 212.133C249.381 213.169 248.677 214.488 248.392 215.924C248.107 217.36 248.254 218.848 248.815 220.2C249.376 221.552 250.325 222.708 251.542 223.521C252.759 224.334 254.19 224.768 255.654 224.768C256.627 224.769 257.591 224.577 258.49 224.205C259.39 223.832 260.206 223.286 260.894 222.597C261.582 221.909 262.127 221.091 262.498 220.191C262.869 219.292 263.06 218.328 263.058 217.354Z" stroke="#5D1393" stroke-linecap="round" stroke-linejoin="round"/>
<path d="M258.803 218.839C258.803 216.351 255.275 216.279 255.275 215.255C255.275 214.707 255.562 214.543 256.151 214.543C256.692 214.57 257.202 214.805 257.574 215.199L258.736 213.857C258.202 213.256 257.48 212.852 256.688 212.71V211.313H255.152V212.756C254.541 212.853 253.987 213.173 253.597 213.654C253.207 214.136 253.01 214.744 253.043 215.363C253.043 217.759 256.576 217.923 256.576 219.008C256.576 219.52 256.304 219.771 255.618 219.771C254.921 219.734 254.256 219.466 253.729 219.008L252.705 220.595C253.402 221.165 254.248 221.52 255.142 221.619V222.991H256.678V221.522C257.297 221.408 257.854 221.074 258.245 220.58C258.636 220.087 258.834 219.468 258.803 218.839Z" stroke="#5D1393" stroke-linecap="round" stroke-linejoin="round"/>
</g>
<g opacity="0.3">
<path d="M83.914 88.5965C88.7098 88.5965 92.5975 84.7087 92.5975 79.913C92.5975 75.1172 88.7098 71.2294 83.914 71.2294C79.1182 71.2294 75.2305 75.1172 75.2305 79.913C75.2305 84.7087 79.1182 88.5965 83.914 88.5965Z" stroke="#5D1393" stroke-linecap="round" stroke-linejoin="round"/>
<path d="M90.8755 82.4258C92.2673 78.5811 90.2788 74.3361 86.4341 72.9444C82.5894 71.5526 78.3444 73.5411 76.9526 77.3858C75.5609 81.2305 77.5494 85.4755 81.3941 86.8672C85.2388 88.259 89.4837 86.2705 90.8755 82.4258Z" stroke="#5D1393" stroke-linecap="round" stroke-linejoin="round"/>
<path d="M87.0679 81.408C87.0679 78.9146 83.5351 78.848 83.5351 77.824C83.5351 77.2762 83.8218 77.1123 84.4106 77.1123C84.953 77.1386 85.4637 77.3756 85.834 77.7728L86.9962 76.4313C86.4616 75.83 85.7403 75.426 84.9482 75.2845V73.8816H83.4122V75.3254C82.8001 75.4232 82.2459 75.7441 81.8564 76.2263C81.4669 76.7084 81.2697 77.3177 81.3028 77.9366C81.3028 80.3328 84.8356 80.4966 84.8356 81.577C84.8356 82.089 84.5642 82.345 83.8781 82.345C83.1807 82.3052 82.5162 82.0351 81.9888 81.577L80.9648 83.1641C81.6613 83.7336 82.5078 84.0893 83.402 84.1881V85.5654H84.938V84.0909C85.5582 83.9785 86.1164 83.6443 86.5083 83.1506C86.9002 82.657 87.0991 82.0375 87.0679 81.408Z" stroke="#5D1393" stroke-linecap="round" stroke-linejoin="round"/>
</g>
<g opacity="0.3">
<path d="M78.5339 204.059C88.9874 202.912 96.5321 193.508 95.3854 183.055C94.2387 172.601 84.8349 165.056 74.3814 166.203C63.9278 167.35 56.3832 176.754 57.5299 187.207C58.6766 197.661 68.0804 205.205 78.5339 204.059Z" stroke="#5D1393" stroke-linecap="round" stroke-linejoin="round"/>
<path d="M91.0227 192.298C94.9887 184.259 91.6871 174.528 83.6484 170.562C75.6097 166.596 65.878 169.897 61.912 177.936C57.946 185.975 61.2476 195.706 69.2863 199.672C77.325 203.638 87.0567 200.337 91.0227 192.298Z" stroke="#5D1393" stroke-linecap="round" stroke-linejoin="round"/>
<path d="M83.3764 188.385C83.3764 182.922 75.6349 182.804 75.6349 180.521C75.6349 179.323 76.2647 178.959 77.5549 178.959C78.666 178.959 79.6029 179.441 80.6781 180.403L83.2381 177.459C82.0528 176.137 80.4565 175.253 78.7069 174.95V171.878H75.3328V175.043C72.4452 175.667 70.7248 177.731 70.7248 180.762C70.7248 186.015 78.4663 186.342 78.4663 188.744C78.4663 189.916 77.8672 190.423 76.3671 190.423C75.1076 190.423 73.8429 189.942 72.225 188.744L70.0029 192.225C71.5255 193.482 73.3811 194.268 75.3431 194.488V197.504H78.7069V194.278C81.8301 193.536 83.3764 191.273 83.3764 188.385Z" stroke="#5D1393" stroke-linecap="round" stroke-linejoin="round"/>
</g>
<path d="M65.5537 93.5373C65.6766 95.9795 63.6184 101.059 63.6184 101.064C63.6184 101.069 60.6795 98.6931 60.5156 98.5037C58.5905 96.4864 56.051 91.4637 57.5358 88.7194C57.7952 88.2701 58.1463 87.8806 58.5662 87.576C58.9861 87.2713 59.4654 87.0585 59.973 86.9513C60.4805 86.8441 61.0049 86.8449 61.5121 86.9537C62.0193 87.0625 62.498 87.2768 62.9169 87.5827C64.7345 88.8371 65.4462 91.4586 65.5537 93.5373Z" fill="#FE7E59"/>
<path d="M115.381 142.054L115.699 142.244L115.74 144.451L114.419 143.636C113.144 142.843 111.797 141.972 110.42 141.076C109.356 142.236 108.224 143.332 107.031 144.358C108.085 146.468 108.531 151.014 108.567 151.598C110.046 151.562 111.485 151.511 112.842 151.444C113.774 151.398 114.67 151.347 115.535 151.291L114.808 153.216C114.189 153.216 113.564 153.262 112.914 153.277C111.413 153.318 109.811 153.339 108.162 153.339C108.07 153.928 107.282 158.766 106.017 160.686C104.87 162.422 102.945 164.316 100.723 164.454C100.21 164.503 99.6928 164.444 99.2043 164.28C98.7158 164.117 98.2669 163.853 97.8864 163.506C97.5059 163.159 97.2023 162.736 96.9951 162.264C96.7879 161.793 96.6816 161.283 96.6832 160.768C96.801 157.645 101.542 154.624 104.225 153.856C104.384 153.815 106.155 153.523 107.271 153.344C106.601 153.344 105.945 153.344 105.254 153.344C103.882 153.344 102.515 153.272 101.04 153.221L98.8899 153.068C98.1731 153.032 97.4154 152.904 96.673 152.822C94.9475 152.602 93.217 152.31 91.4762 151.946C91.4762 153.144 91.3431 157.404 90.4522 159.304C89.5613 161.203 87.9485 163.364 85.793 163.835C85.2895 163.962 84.7649 163.982 84.2533 163.893C83.7417 163.804 83.2546 163.608 82.8238 163.318C82.3929 163.028 82.0279 162.651 81.7526 162.211C81.4773 161.771 81.2979 161.277 81.2259 160.763C80.8675 157.66 85.0967 153.943 87.6362 152.791C87.7898 152.719 89.6842 152.1 90.7645 151.767C89.7405 151.547 88.6755 151.337 87.6259 151.081C84.5949 150.344 81.5536 149.504 78.5123 148.68L75.7322 147.968C75.7322 148.398 75.7066 153.467 74.7082 155.592C73.8378 157.481 72.1994 159.652 70.049 160.123C69.5455 160.251 69.0206 160.271 68.5087 160.183C67.9968 160.094 67.5094 159.898 67.0783 159.608C66.6473 159.318 66.2822 158.941 66.0071 158.5C65.7321 158.059 65.5531 157.566 65.4819 157.051C65.1235 153.948 69.3527 150.231 71.8871 149.079C72.0816 148.992 74.8362 148.101 75.5479 147.912C73.4999 147.369 71.4519 146.852 69.4039 146.427C66.6498 145.836 63.8604 145.424 61.0531 145.193C61.0531 145.393 61.0531 150.682 60.0291 152.873C59.1536 154.762 57.5203 156.928 55.3699 157.399C54.8661 157.528 54.3407 157.549 53.8282 157.461C53.3157 157.372 52.8276 157.177 52.3959 156.887C51.9643 156.597 51.5987 156.219 51.3233 155.778C51.0479 155.337 50.8688 154.842 50.7978 154.327C50.4445 151.229 54.6685 147.507 57.208 146.355C57.4077 146.268 60.3722 145.331 60.92 145.172C60.7562 145.172 60.5923 145.132 60.408 145.121C57.5872 144.968 54.7584 145.066 51.9549 145.413C50.4189 145.587 48.9341 145.838 47.5056 146.115C47.608 147.103 48.0176 151.608 47.3315 153.672C46.6711 155.648 45.2835 157.978 43.1946 158.684C42.7137 158.857 42.2024 158.927 41.6928 158.892C41.1832 158.856 40.6865 158.716 40.2342 158.478C39.7818 158.241 39.3836 157.913 39.0648 157.514C38.7459 157.114 38.5133 156.654 38.3818 156.16C37.6855 153.088 41.4538 148.956 43.8755 147.533C44.0035 147.456 45.4115 146.816 46.4355 146.36C45.7904 146.499 45.1299 146.627 44.5155 146.765C42.2167 147.277 40.1379 147.912 38.305 148.48C37.281 148.813 36.3338 149.13 35.4634 149.437C35.0589 150.461 33.3693 154.557 31.8384 156.027C30.3075 157.496 28.0343 158.904 25.8583 158.587C23.6823 158.269 22.1309 156.262 22.6992 154.086C23.4826 151.066 28.7664 149.12 31.5517 148.966C31.7923 148.966 35.576 149.171 35.5555 149.222V149.284C36.3901 148.972 37.281 148.644 38.2691 148.311C40.0919 147.702 42.1603 147.031 44.4592 146.452C46.9288 145.793 49.4351 145.28 51.9651 144.916C54.7954 144.503 57.6568 144.342 60.5155 144.435H60.6179C59.7527 144.128 57.377 143.186 57.2029 143.094C54.7453 141.778 50.7671 137.8 51.32 134.728C51.4262 134.22 51.638 133.741 51.9419 133.32C52.2457 132.9 52.6347 132.549 53.0834 132.289C53.5322 132.029 54.0306 131.866 54.5463 131.812C55.062 131.758 55.5834 131.813 56.0765 131.973C58.1962 132.582 59.6605 134.845 60.4336 136.791C61.2784 138.982 60.9763 144.061 60.9456 144.471C63.8524 144.639 66.7447 145 69.6035 145.551C71.2675 145.864 72.9418 146.232 74.6109 146.621C73.8736 146.33 73.2183 146.063 73.1312 146.017C70.6685 144.701 66.6954 140.723 67.2483 137.651C67.3546 137.144 67.5665 136.664 67.8703 136.244C68.174 135.823 68.5628 135.471 69.0114 135.211C69.46 134.951 69.9584 134.788 70.4741 134.733C70.9898 134.678 71.5114 134.732 72.0048 134.892C74.1245 135.501 75.6144 137.769 76.3619 139.715C77.1095 141.66 76.9507 146.022 76.8739 147.169C77.5139 147.323 78.1539 147.471 78.7888 147.63C81.8608 148.388 84.9328 149.166 87.9229 149.821C88.9827 150.057 90.0426 150.252 91.0973 150.446C90.4419 150.185 89.8941 149.965 89.8173 149.934C87.3546 148.623 83.3763 144.64 83.9344 141.568C84.0406 141.06 84.2524 140.581 84.5563 140.161C84.8601 139.74 85.2491 139.389 85.6978 139.129C86.1466 138.869 86.645 138.707 87.1607 138.652C87.6764 138.598 88.1978 138.653 88.6909 138.813C90.8055 139.423 92.3005 141.691 93.048 143.631C93.7955 145.572 93.6522 149.519 93.56 150.881C94.6455 151.05 95.736 151.219 96.7959 151.332C97.5229 151.393 98.2141 151.506 98.9463 151.526L101.102 151.634C102.474 151.634 103.887 151.675 105.229 151.66C106.155 151.66 107.046 151.634 107.937 151.613C106.877 151.393 104.809 150.917 104.64 150.856C102.359 149.956 100.346 148.488 98.7927 146.591C98.5353 146.501 98.2868 146.388 98.0503 146.253C97.5915 146.01 97.189 145.674 96.869 145.266C96.5491 144.857 96.3187 144.386 96.1931 143.883C96.0675 143.379 96.0494 142.855 96.1401 142.344C96.2307 141.833 96.428 141.347 96.7191 140.918C98.5367 138.383 104.164 138.465 106.816 139.32C106.974 139.372 108.613 140.104 109.637 140.585C109.079 140.211 108.531 139.853 107.957 139.459C106.821 138.691 105.71 137.892 104.512 137.037L102.837 135.68C102.259 135.255 101.701 134.733 101.122 134.252C99.8115 133.12 98.5315 131.901 97.272 130.668C96.6013 131.661 94.1539 135.153 92.3722 136.253C90.5904 137.354 88.0458 138.255 85.9927 137.462C83.9395 136.668 82.8439 134.39 83.8627 132.393C85.2759 129.608 90.8567 128.84 93.5907 129.275C93.7648 129.306 95.7002 129.843 96.76 130.156C96.0125 129.398 95.2599 128.645 94.5226 127.852C92.4029 125.568 90.3242 123.187 88.2455 120.822C87.6055 120.1 86.9604 119.383 86.3203 118.666C86.0848 119.025 83.2483 123.238 81.272 124.472C79.5056 125.568 76.9456 126.469 74.8925 125.676C74.4027 125.505 73.9542 125.234 73.5761 124.879C73.198 124.524 72.8989 124.094 72.698 123.616C72.4971 123.138 72.3991 122.623 72.4102 122.104C72.4213 121.586 72.5414 121.076 72.7626 120.607C74.1808 117.827 79.7565 117.053 82.4906 117.494C82.7005 117.53 85.4909 118.303 86.1872 118.518C84.7741 116.936 83.3507 115.374 81.8864 113.91C79.9154 111.9 77.817 110.018 75.6042 108.278C75.4967 108.447 72.5731 112.855 70.5354 114.12C68.7639 115.215 66.2039 116.122 64.1507 115.328C63.6607 115.157 63.2121 114.885 62.8342 114.53C62.4562 114.175 62.1572 113.743 61.9568 113.265C61.7564 112.786 61.6589 112.271 61.6709 111.752C61.6828 111.233 61.8038 110.723 62.0259 110.254C63.4391 107.474 69.0147 106.706 71.7539 107.141C71.9741 107.177 74.9744 108.017 75.5069 108.206C75.3789 108.104 75.256 107.986 75.1229 107.889C72.8544 106.207 70.4421 104.728 67.9139 103.47C66.5264 102.764 65.1594 102.159 63.8179 101.601C63.3571 102.482 61.2067 106.465 59.5018 107.807C57.7968 109.148 55.4058 110.269 53.2861 109.706C52.7807 109.59 52.3054 109.369 51.8911 109.057C51.4767 108.746 51.1325 108.35 50.881 107.897C50.6294 107.443 50.476 106.942 50.4308 106.426C50.3856 105.909 50.4496 105.389 50.6186 104.899C51.7143 101.98 57.1722 100.603 59.9575 100.736C60.1111 100.736 61.6419 100.987 62.753 101.181C62.1437 100.941 61.5191 100.669 60.9303 100.46C58.7184 99.6301 56.6448 99.0054 54.7863 98.4627C53.7623 98.1658 52.7792 97.92 51.8832 97.6947C50.9821 98.3194 47.3213 100.797 45.2272 101.187C43.1331 101.576 40.4656 101.494 38.8375 100.014C37.2093 98.5344 37.0096 96.0205 38.6839 94.5203C41.0032 92.4314 46.4816 93.7267 48.8931 95.1245C49.0979 95.2474 52.1392 97.5155 52.0931 97.5514L52.0368 97.5872C52.9021 97.7869 53.8288 98.007 54.8375 98.2682C56.696 98.7802 58.785 99.3485 61.0224 100.137C63.442 100.957 65.8115 101.917 68.1187 103.014C70.7066 104.233 73.1823 105.678 75.5171 107.331L75.5939 107.397C75.0461 106.665 73.5869 104.566 73.4896 104.392C72.1635 101.939 71.0423 96.425 73.2029 94.1517C73.5715 93.7875 74.0126 93.505 74.4976 93.3225C74.9826 93.14 75.5005 93.0617 76.0177 93.0926C76.535 93.1235 77.0399 93.263 77.4997 93.5019C77.9595 93.7408 78.3638 94.0739 78.6864 94.4794C80.12 96.1536 80.1098 98.8672 79.6643 100.9C79.1523 103.194 76.0803 107.264 75.8602 107.587C78.2157 109.334 80.4514 111.238 82.552 113.285C83.7706 114.468 84.9635 115.692 86.136 116.936C85.6855 116.291 85.281 115.707 85.2349 115.62C83.9088 113.167 82.7875 107.648 84.9482 105.38C85.3168 105.016 85.7579 104.733 86.2429 104.551C86.7278 104.368 87.2458 104.29 87.763 104.321C88.2803 104.352 88.7852 104.491 89.245 104.73C89.7048 104.969 90.1091 105.302 90.4317 105.708C91.8653 107.382 91.8551 110.095 91.4096 112.128C90.9642 114.161 88.4195 117.714 87.7335 118.641C88.184 119.122 88.6346 119.598 89.08 120.079C91.2151 122.404 93.3347 124.728 95.4851 126.945C96.2429 127.729 97.0211 128.481 97.7891 129.219C97.3898 128.64 97.057 128.154 97.0109 128.072C95.6848 125.619 94.5635 120.105 96.7242 117.832C98.2602 116.209 100.82 116.521 102.208 118.159C103.595 119.798 103.631 122.552 103.186 124.585C102.74 126.618 100.441 129.823 99.6323 130.924C100.446 131.666 101.261 132.408 102.085 133.089C102.653 133.54 103.175 134.016 103.774 134.436L105.51 135.711C106.647 136.484 107.809 137.288 108.935 138.01C109.714 138.522 110.471 138.993 111.224 139.469C110.461 138.701 108.997 137.16 108.889 137.016C107.205 134.794 105.264 129.516 107.056 126.956C107.366 126.539 107.759 126.193 108.211 125.939C108.663 125.685 109.163 125.528 109.679 125.48C110.195 125.432 110.716 125.493 111.207 125.659C111.698 125.825 112.149 126.092 112.53 126.444C114.194 127.882 114.578 130.565 114.465 132.644C114.317 134.932 112.028 139.254 111.736 139.812C112.985 140.611 114.209 141.363 115.381 142.054Z" fill="#FE7E59"/>
<path d="M47.0705 145.792C47.0705 145.848 43.3124 145.434 43.0769 145.382C40.3581 144.763 35.4685 141.972 35.1921 138.865C35.1613 138.347 35.2398 137.828 35.4226 137.343C35.6054 136.857 35.8882 136.416 36.2528 136.047C36.6174 135.678 37.0556 135.39 37.5388 135.202C38.022 135.013 38.5395 134.928 39.0577 134.953C41.2593 134.979 43.297 136.771 44.5309 138.45C45.9799 140.416 47.0705 145.787 47.0705 145.792Z" fill="#FE7E59"/>
<path d="M319.055 93.5373C318.932 95.9795 320.985 101.059 320.985 101.064C320.985 101.069 323.924 98.6931 324.093 98.5037C326.018 96.4864 328.558 91.4637 327.073 88.7194C326.814 88.2701 326.463 87.8806 326.043 87.576C325.623 87.2713 325.143 87.0585 324.636 86.9513C324.128 86.8441 323.604 86.8449 323.097 86.9537C322.589 87.0625 322.111 87.2768 321.692 87.5827C319.869 88.8371 319.158 91.4586 319.055 93.5373Z" fill="#FE7E59"/>
<path d="M269.227 142.054L268.904 142.244L268.869 144.451L270.19 143.636C271.464 142.843 272.811 141.972 274.183 141.076C275.248 142.236 276.379 143.332 277.573 144.358C276.518 146.468 276.078 151.014 276.037 151.598C274.557 151.562 273.123 151.511 271.767 151.444C270.83 151.398 269.934 151.347 269.073 151.291L269.806 153.231C270.42 153.231 271.045 153.277 271.695 153.293C273.195 153.334 274.803 153.354 276.451 153.354C276.544 153.943 277.332 158.781 278.597 160.701C279.744 162.437 281.669 164.332 283.886 164.47C284.402 164.521 284.923 164.463 285.415 164.299C285.907 164.135 286.359 163.869 286.742 163.519C287.124 163.169 287.429 162.742 287.636 162.266C287.842 161.79 287.946 161.276 287.941 160.758C287.823 157.635 283.082 154.614 280.399 153.846C280.24 153.805 278.469 153.513 277.327 153.334C278.003 153.334 278.653 153.334 279.375 153.334C280.747 153.334 282.114 153.262 283.584 153.211L285.734 153.057C286.456 153.021 287.208 152.893 287.956 152.812C289.676 152.591 291.412 152.3 293.153 151.936C293.153 153.134 293.281 157.394 294.177 159.293C295.073 161.193 296.686 163.354 298.836 163.825C299.34 163.952 299.865 163.972 300.377 163.883C300.888 163.794 301.376 163.598 301.807 163.308C302.238 163.018 302.604 162.641 302.88 162.201C303.156 161.761 303.336 161.267 303.408 160.753C303.761 157.65 299.537 153.933 296.998 152.781C296.839 152.709 294.95 152.09 293.87 151.757C294.894 151.537 295.953 151.327 297.008 151.071C300.034 150.333 303.08 149.494 306.122 148.669L308.856 147.968C308.856 148.398 308.881 153.467 309.88 155.592C310.75 157.481 312.384 159.652 314.534 160.123C316.684 160.594 318.85 159.299 319.106 157.051C319.459 153.948 315.235 150.231 312.696 149.079C312.506 148.992 309.752 148.101 309.04 147.912C311.088 147.369 313.136 146.852 315.184 146.427C317.937 145.836 320.724 145.424 323.53 145.193C323.53 145.393 323.53 150.682 324.554 152.873C325.424 154.762 327.063 156.928 329.213 157.399C329.716 157.527 330.241 157.548 330.753 157.459C331.265 157.37 331.753 157.175 332.184 156.885C332.615 156.595 332.98 156.217 333.255 155.776C333.53 155.335 333.709 154.842 333.78 154.327C334.138 151.229 329.914 147.507 327.375 146.355C327.175 146.268 324.211 145.331 323.658 145.172C323.822 145.172 323.991 145.132 324.17 145.121C326.989 144.968 329.816 145.066 332.618 145.413C334.154 145.587 335.644 145.838 337.067 146.115C336.97 147.103 336.555 151.608 337.246 153.672C337.907 155.648 339.294 157.978 341.378 158.684C341.861 158.862 342.377 158.938 342.891 158.905C343.405 158.873 343.906 158.733 344.363 158.496C344.82 158.258 345.223 157.928 345.544 157.525C345.866 157.123 346.1 156.658 346.232 156.16C346.928 153.088 343.16 148.956 340.738 147.533C340.61 147.456 339.202 146.816 338.178 146.36C338.818 146.499 339.484 146.627 340.098 146.765C342.397 147.277 344.471 147.912 346.304 148.48C347.328 148.813 348.28 149.13 349.15 149.437C349.555 150.461 351.244 154.557 352.775 156.027C354.306 157.496 356.574 158.904 358.75 158.587C359.265 158.525 359.761 158.355 360.206 158.088C360.652 157.822 361.036 157.465 361.334 157.041C361.632 156.617 361.838 156.134 361.938 155.625C362.038 155.116 362.03 154.592 361.914 154.086C361.126 151.066 355.842 149.12 353.062 148.966C352.821 148.966 349.038 149.171 349.058 149.222V149.284C348.229 148.972 347.333 148.644 346.35 148.311C344.522 147.702 342.458 147.031 340.16 146.452C337.69 145.794 335.184 145.281 332.654 144.916C329.823 144.503 326.962 144.342 324.103 144.435H324.001C324.861 144.128 327.242 143.186 327.416 143.094C329.873 141.778 333.852 137.8 333.294 134.728C333.187 134.22 332.976 133.741 332.672 133.32C332.368 132.9 331.979 132.549 331.53 132.289C331.081 132.029 330.583 131.866 330.067 131.812C329.552 131.758 329.03 131.813 328.537 131.973C326.423 132.582 324.928 134.845 324.18 136.791C323.335 138.982 323.668 144.061 323.668 144.471C320.758 144.636 317.862 144.996 315 145.546C313.331 145.859 311.662 146.227 309.992 146.616C310.73 146.324 311.385 146.058 311.472 146.012C313.93 144.696 317.908 140.718 317.355 137.646C317.249 137.138 317.037 136.659 316.733 136.238C316.429 135.818 316.041 135.466 315.592 135.206C315.143 134.946 314.645 134.783 314.129 134.728C313.614 134.673 313.092 134.727 312.599 134.886C310.479 135.496 308.984 137.764 308.236 139.709C307.489 141.655 307.653 146.017 307.724 147.164L305.804 147.625C302.732 148.383 299.691 149.161 296.675 149.816C295.61 150.052 294.556 150.246 293.501 150.441C294.151 150.18 294.699 149.96 294.781 149.929C297.239 148.618 301.217 144.635 300.664 141.563C300.558 141.055 300.346 140.576 300.042 140.156C299.738 139.735 299.349 139.384 298.9 139.124C298.452 138.864 297.953 138.702 297.438 138.647C296.922 138.593 296.4 138.648 295.907 138.808C293.788 139.418 292.298 141.686 291.55 143.626C290.803 145.567 290.936 149.504 291.013 150.861C289.927 151.03 288.837 151.199 287.777 151.311C287.05 151.373 286.353 151.485 285.621 151.506L283.471 151.613C282.099 151.613 280.68 151.654 279.344 151.639C278.412 151.639 277.527 151.613 276.636 151.593C277.696 151.373 279.764 150.897 279.928 150.835C282.21 149.937 284.223 148.469 285.775 146.57C286.034 146.481 286.284 146.368 286.522 146.232C286.981 145.989 287.382 145.653 287.702 145.244C288.021 144.836 288.252 144.365 288.377 143.862C288.503 143.358 288.521 142.834 288.431 142.324C288.341 141.813 288.144 141.327 287.854 140.897C286.036 138.363 280.404 138.445 277.752 139.3C277.598 139.351 275.96 140.083 274.931 140.564C275.494 140.191 276.042 139.832 276.61 139.438C277.747 138.67 278.858 137.871 280.056 137.016L281.766 135.7C282.344 135.276 282.903 134.753 283.481 134.272C284.797 133.14 286.072 131.922 287.331 130.688C288.007 131.681 290.455 135.173 292.231 136.274C294.008 137.375 296.568 138.24 298.616 137.467C300.664 136.694 301.76 134.395 300.741 132.398C299.328 129.613 293.752 128.845 291.013 129.28C290.844 129.311 288.903 129.848 287.843 130.161C288.596 129.403 289.349 128.65 290.081 127.857C292.206 125.573 294.279 123.192 296.363 120.827C296.998 120.105 297.643 119.388 298.283 118.671C298.524 119.03 301.355 123.244 303.331 124.477C305.103 125.573 307.663 126.474 309.716 125.681C310.206 125.511 310.654 125.239 311.032 124.884C311.41 124.529 311.709 124.099 311.91 123.62C312.11 123.142 312.208 122.627 312.196 122.109C312.184 121.59 312.063 121.08 311.841 120.612C310.428 117.832 304.852 117.059 302.113 117.499C301.908 117.535 299.118 118.308 298.416 118.523C299.829 116.941 301.258 115.379 302.722 113.915C304.69 111.903 306.787 110.022 308.999 108.283C309.112 108.452 312.035 112.86 314.073 114.125C315.845 115.22 318.4 116.127 320.458 115.333C320.948 115.162 321.396 114.891 321.774 114.535C322.152 114.18 322.451 113.749 322.652 113.27C322.852 112.791 322.95 112.276 322.938 111.757C322.926 111.239 322.805 110.728 322.583 110.259C321.169 107.479 315.594 106.711 312.855 107.146C312.64 107.182 309.639 108.022 309.107 108.211C309.235 108.109 309.358 107.991 309.486 107.894C311.756 106.212 314.17 104.733 316.7 103.475C318.087 102.769 319.454 102.164 320.796 101.606C321.256 102.487 323.402 106.47 325.112 107.812C326.822 109.153 329.208 110.275 331.322 109.711C331.828 109.596 332.304 109.375 332.719 109.064C333.134 108.752 333.479 108.357 333.731 107.904C333.983 107.45 334.137 106.949 334.182 106.432C334.228 105.915 334.164 105.394 333.995 104.904C332.894 101.985 327.436 100.608 324.651 100.741C324.503 100.741 322.972 100.992 321.861 101.187C322.47 100.946 323.095 100.675 323.683 100.465C325.89 99.6352 327.964 99.0106 329.827 98.4679C330.851 98.1709 331.834 97.9251 332.725 97.6999C333.626 98.3245 337.287 100.803 339.381 101.192C341.475 101.581 344.138 101.499 345.771 100.019C347.404 98.5395 347.599 96.0256 345.925 94.5254C343.6 92.4365 338.122 93.7318 335.715 95.1296C335.505 95.2525 332.469 97.5206 332.515 97.5565L332.572 97.5923C331.701 97.792 330.775 98.0122 329.771 98.2733C327.912 98.7853 325.818 99.3536 323.581 100.142C321.163 100.962 318.795 101.923 316.49 103.02C313.901 104.236 311.425 105.681 309.091 107.336L309.009 107.402C309.557 106.67 311.022 104.571 311.114 104.397C312.44 101.944 313.561 96.4301 311.406 94.1568C311.037 93.7925 310.595 93.5099 310.11 93.3274C309.624 93.1449 309.106 93.0665 308.588 93.0974C308.071 93.1283 307.565 93.2678 307.105 93.5068C306.645 93.7457 306.24 94.0789 305.917 94.4845C304.488 96.1587 304.494 98.8723 304.944 100.905C305.456 103.199 308.528 107.269 308.748 107.592C306.416 109.335 304.203 111.232 302.123 113.27C300.904 114.452 299.717 115.676 298.539 116.92C298.99 116.275 299.389 115.692 299.44 115.604C300.766 113.152 301.882 107.633 299.727 105.364C299.358 105 298.916 104.718 298.431 104.535C297.946 104.353 297.427 104.274 296.91 104.305C296.392 104.336 295.887 104.475 295.426 104.714C294.966 104.953 294.561 105.287 294.238 105.692C292.81 107.366 292.815 110.08 293.265 112.113C293.716 114.145 296.256 117.699 296.936 118.625L295.544 120.095C293.409 122.419 291.284 124.744 289.134 126.961C288.381 127.744 287.598 128.497 286.83 129.234C287.234 128.655 287.567 128.169 287.608 128.087C288.934 125.635 290.055 120.12 287.9 117.847C287.531 117.483 287.089 117.2 286.604 117.018C286.118 116.835 285.6 116.757 285.082 116.788C284.565 116.819 284.059 116.958 283.599 117.197C283.139 117.436 282.734 117.769 282.411 118.175C280.983 119.849 280.988 122.568 281.438 124.6C281.889 126.633 284.183 129.838 284.986 130.939C284.172 131.681 283.363 132.424 282.539 133.105C281.966 133.555 281.448 134.031 280.849 134.451L279.109 135.726C277.977 136.499 276.81 137.303 275.683 138.025C274.905 138.537 274.147 139.008 273.4 139.484C274.163 138.716 275.627 137.175 275.735 137.032C277.414 134.81 279.36 129.531 277.568 126.971C277.258 126.555 276.865 126.208 276.413 125.954C275.961 125.7 275.461 125.544 274.945 125.495C274.429 125.447 273.908 125.508 273.417 125.674C272.926 125.84 272.475 126.107 272.094 126.459C270.425 127.898 270.046 130.58 270.154 132.659C270.307 134.948 272.596 139.269 272.883 139.827C271.623 140.611 270.394 141.363 269.227 142.054Z" fill="#FE7E59"/>
<path d="M337.528 145.792C337.528 145.848 341.286 145.434 341.521 145.382C344.235 144.763 349.125 141.972 349.401 138.865C349.601 136.627 347.696 134.927 345.541 134.953C343.385 134.979 341.301 136.771 340.067 138.45C338.629 140.416 337.528 145.787 337.528 145.792Z" fill="#FE7E59"/>
<path d="M123.813 50.5253L115.097 57.3494L125.674 70.8584L134.39 64.0342L123.813 50.5253Z" fill="#5D1393" stroke="#5D1393" stroke-linejoin="round"/>
<path d="M123.115 43.3474L108.296 54.9503L115.802 64.5368L130.621 52.9338L123.115 43.3474Z" fill="#FE7E59" stroke="#5D1393" stroke-linejoin="round"/>
<path d="M111.495 52.8998L116.999 59.9296" stroke="#5D1393" stroke-linejoin="round"/>
<path d="M116.513 48.9728L122.017 55.9974" stroke="#5D1393" stroke-linejoin="round"/>
<path d="M115.146 52.7411L120.65 59.7658" stroke="#5D1393" stroke-linejoin="round"/>
<path d="M236.887 64.0439L245.603 70.8681L256.18 57.3592L247.464 50.535L236.887 64.0439Z" fill="#5D1393" stroke="#5D1393" stroke-linejoin="round"/>
<path d="M240.664 52.9314L255.483 64.5344L262.989 54.9479L248.17 43.3449L240.664 52.9314Z" fill="#FE7E59" stroke="#5D1393" stroke-linejoin="round"/>
<path d="M259.796 52.8998L254.292 59.9296" stroke="#5D1393" stroke-linejoin="round"/>
<path d="M254.778 48.9728L249.274 55.9974" stroke="#5D1393" stroke-linejoin="round"/>
<path d="M256.146 52.7411L250.642 59.7658" stroke="#5D1393" stroke-linejoin="round"/>
<path d="M193.953 26.793H176.002V44.7693H193.953V26.793Z" fill="#5D1393" stroke="#5D1393" stroke-linejoin="round"/>
<path d="M197.967 16.4813H171.988V34.4576H197.967V16.4813Z" fill="#FE7E59" stroke="#5D1393" stroke-linejoin="round"/>
<path d="M174.323 16.4198V31.401" stroke="#5D1393" stroke-linejoin="round"/>
<path d="M176.463 32.0717V24.0435" stroke="#5D1393" stroke-linejoin="round"/>
<path d="M178.736 16.8243V28.1907" stroke="#5D1393" stroke-linejoin="round"/>
<path d="M181.009 22.3078V32.7424" stroke="#5D1393" stroke-linejoin="round"/>
<path d="M184.491 16.9575V28.7283" stroke="#5D1393" stroke-linejoin="round"/>
<path d="M251.375 201.928C288.048 165.255 288.048 105.797 251.375 69.1245C214.703 32.4519 155.245 32.452 118.572 69.1245C81.8999 105.797 81.8999 165.255 118.572 201.928C155.245 238.6 214.703 238.6 251.375 201.928Z" fill="#5D1393" stroke="#5D1393" stroke-linejoin="round"/>
<path d="M243.592 194.144C275.965 161.77 275.965 109.282 243.592 76.9083C211.218 44.5347 158.73 44.5347 126.356 76.9083C93.9828 109.282 93.9828 161.77 126.356 194.144C158.73 226.517 211.218 226.517 243.592 194.144Z" fill="#FE7E59" stroke="#5D1393" stroke-linejoin="round"/>
<path d="M238.997 189.549C268.834 159.713 268.834 111.339 238.997 81.5026C209.161 51.6663 160.787 51.6663 130.951 81.5026C101.114 111.339 101.114 159.713 130.951 189.549C160.787 219.386 209.161 219.386 238.997 189.549Z" fill="#FE7E59" stroke="#5D1393" stroke-linejoin="round"/>
<path d="M184.978 59.1258V69.4835" stroke="#5D1393" stroke-linejoin="round"/>
<path d="M184.978 201.492V211.85" stroke="#5D1393" stroke-linejoin="round"/>
<path d="M261.337 135.491H250.979" stroke="#5D1393" stroke-linejoin="round"/>
<path d="M118.971 135.491H108.613" stroke="#5D1393" stroke-linejoin="round"/>
<path d="M238.973 81.4951L231.646 88.8167" stroke="#5D1393" stroke-linejoin="round"/>
<path d="M138.304 182.159L130.982 189.486" stroke="#5D1393" stroke-linejoin="round"/>
<path d="M130.982 81.4951L138.304 88.8167" stroke="#5D1393" stroke-linejoin="round"/>
<path d="M231.646 182.159L238.973 189.486" stroke="#5D1393" stroke-linejoin="round"/>
<path d="M203.824 128.215L205.017 132.767L126.937 151.598L126.579 150.231L203.824 128.215Z" fill="#5D1393" stroke="#5D1393" stroke-linejoin="round"/>
<path d="M187.973 135.526C187.973 134.934 187.797 134.355 187.468 133.862C187.139 133.37 186.671 132.986 186.124 132.759C185.577 132.532 184.974 132.473 184.393 132.589C183.812 132.704 183.279 132.99 182.86 133.408C182.441 133.827 182.156 134.361 182.04 134.942C181.924 135.523 181.984 136.125 182.21 136.673C182.437 137.22 182.821 137.688 183.314 138.017C183.806 138.346 184.385 138.522 184.978 138.522C185.371 138.522 185.76 138.444 186.124 138.294C186.487 138.143 186.817 137.922 187.096 137.644C187.374 137.366 187.594 137.036 187.745 136.673C187.895 136.309 187.973 135.92 187.973 135.526Z" fill="white" stroke="#5D1393" stroke-linejoin="round"/>
</g>
<defs>
<clipPath id="clip0_232_1284">
<rect width="384" height="256" fill="white" transform="translate(-5)"/>
</clipPath>
</defs>
</svg>
