<svg width="118" height="96" viewBox="0 0 118 96" fill="none" xmlns="http://www.w3.org/2000/svg">
<path d="M64.0346 47.9999L73.4918 38.5429L82.949 29.0858L77.9142 24.051L58.9998 42.9652L64.0346 47.9999Z" fill="#FE7E59"/>
<path d="M83 24.0003H59V31.1206H83V24.0003Z" fill="#FE7E59"/>
<path d="M83 48V24.0003L75.8797 24.0003V48H83Z" fill="#FE7E59"/>
<path d="M53.9655 0L35.5563 18.409L40.5911 23.4437L59.0004 5.03478L53.9655 0Z" fill="#5D1393"/>
<path d="M35 24.0003H59V16.8801H35V24.0003Z" fill="#5D1393"/>
<path d="M35 0.000654096L35 24.0003L42.1204 24.0003V0.000654096H35Z" fill="#5D1393"/>
<path d="M0 76.8124V95.5989L4.81069 94.707L8.75912 89.902V75.0873L0 76.8124ZM0.832799 77.4891L0.462149 95.0446V77.1809L8.29697 75.6417L0.832799 77.4891Z" fill="#5D1393"/>
<path d="M10.8031 67.1714V89.902H17.374V81.1854H19.5328V65.8783L10.8031 67.1714ZM11.5754 67.8806L11.2668 89.439V67.5724L19.0706 66.4017L11.5754 67.8806Z" fill="#FE7E59"/>
<path d="M30.6988 72.0074L21.5458 73.24V79.1754H30.6988V81.1854H17.374V89.902H35.2955L35.7266 85.0969L36.1593 89.902H37.2992V81.1854H39.4595L30.6988 72.0074ZM22.3181 74.0096L22.0095 78.7434V73.7014L30.6988 72.5308L22.3181 74.0096Z" fill="#5D1393"/>
<path d="M28.416 90.7645L26.2262 92.951L28.416 95.1375L30.6073 92.951L28.416 90.7645ZM27.121 92.951L27.4917 93.5673L26.8744 92.951L28.416 91.4118L29.3108 92.3037L28.416 91.658L27.121 92.951Z" fill="#FE7E59"/>
<path d="M39.9216 75.4884V81.1854H37.2992V89.902H48.6513V74.1939L39.9216 75.4884ZM40.6924 76.1341L40.3838 81.1854V75.8879L48.2186 74.7173L40.6924 76.1341Z" fill="#5D1393"/>
<path d="M46.4305 65.8474L44.2717 68.0029L42.1114 65.8474L39.9216 68.0339L42.1114 70.2204L44.2717 68.0648L46.4305 70.2204L48.6203 68.0339L46.4305 65.8474ZM42.1114 66.7409L40.8164 68.0339L41.1871 68.6502L40.5699 68.0339L42.1114 66.4947L43.0062 67.3866L42.1114 66.7409ZM45.1355 68.0339L45.5046 68.6502L44.8874 68.0339L46.4305 66.4947L47.3253 67.3866L46.4305 66.7409L45.1355 68.0339Z" fill="#FE7E59"/>
<path d="M69.6263 65.8783L67.4365 68.0648L69.6263 70.2513L71.8161 68.0648L69.6263 65.8783ZM68.3314 68.0648L68.7005 68.6812L68.0832 68.0648L69.6263 66.5241L70.5212 67.4176L69.6263 66.7718L68.3314 68.0648Z" fill="#FE7E59"/>
<path d="M71.7851 70.2513L69.6263 72.4069L67.4676 70.2513L65.2762 72.4378L67.4676 74.6259L69.6263 72.4688L71.7851 74.6259L73.9749 72.4378L71.7851 70.2513ZM67.4676 71.1448L66.1711 72.4378L66.5417 73.0541L65.9245 72.4378L67.4676 70.8986L68.3608 71.7921L67.4676 71.1448ZM70.4901 72.4378L70.8608 73.0541L70.2436 72.4378L71.7851 70.8986L72.6799 71.7921L71.7851 71.1448L70.4901 72.4378Z" fill="#FE7E59"/>
<path d="M80.7613 74.2558L75.1023 76.0118V81.1854H73.1204V76.5352L68.7408 77.3977V81.1854H66.7573V77.0586L62.3777 77.9211V90.7645H59.5397V84.2034L54.0792 85.9594V91.627L59.3241 96L67.19 95.1375L71.1384 90.3324L66.7573 89.902H80.7613V74.2558ZM54.9135 86.6377L54.5429 91.4118V86.3295L59.0775 84.7888L54.9135 86.6377ZM63.1795 78.5978L62.8399 88.1459V78.2897L66.2951 77.613L63.1795 78.5978ZM69.5426 78.0744L69.2029 81.6468V77.7663L72.6582 77.0896L69.5426 78.0744ZM75.9057 76.6885L75.566 81.6468V76.3804L80.2992 74.8102L75.9057 76.6885Z" fill="#5D1393"/>
<path d="M82.8053 67.1714V89.902H89.3747V81.1854H91.535V65.8783L82.8053 67.1714ZM83.5761 67.8806L83.2675 89.439V67.5724L91.0728 66.4017L83.5761 67.8806Z" fill="#FE7E59"/>
<path d="M109.27 76.3184H96.3767V74.3084H114.884L117.969 64L93.548 67.6947V79.1754H109.27V81.1854H89.3747V89.902H118V81.1854L109.27 76.3184ZM94.0101 78.2571V68.0958L117.353 64.5544L94.4428 68.4659L94.0101 78.2571Z" fill="#5D1393"/>
</svg>
