<svg width="146" height="32" viewBox="0 0 146 32" fill="none" xmlns="http://www.w3.org/2000/svg">
<path d="M4.94233 11.0066L6.62904 20.4993C7.54015 25.5857 4.65565 30.4345 2.83342 32L0 28.785C1.94003 26.6076 3.20454 23.647 2.63118 20.4152L0.944473 11.0066H4.94233Z" fill="white"/>
<path d="M9.46246 4.30423L13.2237 25.5868H9.14138L5.3812 4.30423H9.4635H9.46246Z" fill="white"/>
<path d="M35.0185 21.538L30.2951 21.5212C30.7673 20.5508 31.0373 19.4626 31.0373 18.3051C31.0373 14.2732 27.8161 11.0245 23.8182 11.0066H12.5669L13.2925 15.0564H23.8349C25.5894 15.0732 27.0228 16.5357 27.0228 18.3051C27.0228 20.0745 25.5894 21.5212 23.8349 21.538L12.5065 21.5222L12.9432 24L13.9669 25.5699L23.8516 25.5868C25.3528 25.5699 26.7361 25.1105 27.9005 24.3104L28.7095 25.5699L35.7274 25.5868L35.0185 21.538Z" fill="white"/>
<path d="M23.126 29.2108C23.126 30.4009 22.1816 31.3534 21.0182 31.3534C19.8548 31.3534 18.9093 30.4009 18.9093 29.2108C18.9093 28.0206 19.8537 27.1007 21.0182 27.1007C22.1826 27.1007 23.126 28.0532 23.126 29.2108Z" fill="#FE7E59"/>
<path d="M35.7597 11.0066H31.7451L33.6174 21.5212H30.2273L32.8585 25.5699H34.343V25.5868H38.3408L35.7597 11.0066Z" fill="white"/>
<path d="M36.013 8.33617C35.6419 9.47584 34.4441 10.0709 33.3474 9.69662C32.2341 9.34021 31.644 8.13221 32.0151 6.99254C32.1329 6.63508 32.3519 6.32914 32.6219 6.09048C31.5929 5.68256 31.0529 4.52502 31.4074 3.42005C31.7785 2.33085 32.9763 1.71791 34.073 2.09219C35.1696 2.46647 35.7764 3.67448 35.4052 4.76368C35.2874 5.13796 35.0685 5.46072 34.7985 5.69938C35.8108 6.12413 36.3674 7.28166 36.013 8.33617Z" fill="#FE7E59"/>
<path d="M74.5571 11.0066L70.9971 13.6444L72.3638 21.5212H70.8115L69.007 11.0245L65.448 13.6444L66.8137 21.5212H65.0092C65.0258 21.3677 65.0258 21.1974 65.0258 21.0439C65.0258 20.4656 64.9748 19.8874 64.8736 19.326L63.4236 11.0066L59.8813 13.6444L60.9269 20.0409C60.9946 20.3636 61.0113 20.7043 61.0113 21.0439C61.0113 21.1974 61.0113 21.3677 60.9946 21.5212H60.8935L60.978 21.64C60.6902 24.5995 58.2113 26.8967 55.209 26.8967C52.0034 26.8967 49.4055 24.2768 49.4055 21.0439C49.4055 17.811 52.0034 15.192 55.209 15.192C55.6979 15.192 56.1701 15.2772 56.609 15.4128L55.849 11.1601C55.6301 11.1433 55.4279 11.1433 55.209 11.1433C49.7933 11.1433 45.391 15.5831 45.391 21.0439C45.391 26.5046 49.7933 30.9455 55.209 30.9455C59.0035 30.9455 62.2935 28.7681 63.9292 25.5868H77.0705L74.5571 11.0066Z" fill="white"/>
<path d="M72.3804 6.32914C72.3804 7.51927 71.436 8.4718 70.2726 8.4718C69.4626 8.4718 68.7537 8.01235 68.3993 7.31531C68.0625 8.03023 67.337 8.50649 66.5103 8.50649C65.3459 8.50649 64.4014 7.55396 64.4014 6.36278C64.4014 5.1716 65.3459 4.25272 66.5103 4.25272C67.3203 4.25272 68.0281 4.71216 68.3826 5.39344C68.7203 4.69534 69.4459 4.21908 70.2726 4.21908C71.436 4.21908 72.3804 5.1716 72.3804 6.32914Z" fill="#FE7E59"/>
<path d="M70.4915 2.11006C70.4915 3.30019 69.547 4.25272 68.3826 4.25272C67.2181 4.25272 66.2737 3.30019 66.2737 2.11006C66.2737 0.919933 67.2192 0 68.3826 0C69.546 0 70.4915 0.952525 70.4915 2.11006Z" fill="#FE7E59"/>
<path d="M79.784 4.30423L83.5452 25.5868H79.4629L75.7017 4.30423H79.784Z" fill="white"/>
<path d="M94.7799 11.0066C98.7777 11.0066 102 14.2732 102 18.3051C102 22.337 98.7955 25.5868 94.7966 25.5868H84.3886L81.3863 21.538H94.7966C96.5343 21.538 97.9844 20.0745 97.9844 18.3061C97.9844 16.5378 96.5333 15.0564 94.7799 15.0564H83.1741L82.4652 11.0077L93.9021 4.30423C94.4588 7.33213 91.4565 8.86395 87.6776 11.0077H94.7788L94.7799 11.0066Z" fill="white"/>
<path d="M133.356 32L139.661 25.6952L145.966 19.3905L142.609 16.034L130 28.6434L133.356 32Z" fill="#FE7E59"/>
<path d="M146 16.0002H130V20.7471H146V16.0002Z" fill="#FE7E59"/>
<path d="M146 32V16.0002H141.253V32H146Z" fill="#FE7E59"/>
<path d="M126.644 0L114.371 12.2726L117.727 15.6292L130 3.35652L126.644 0Z" fill="white"/>
<path d="M114 16.0002H130V11.2534H114V16.0002Z" fill="white"/>
<path d="M114 0.000436064L114 16.0002H118.747V0.000436064H114Z" fill="white"/>
</svg>
