<svg width="128" height="92" viewBox="0 0 128 92" fill="none" xmlns="http://www.w3.org/2000/svg">
<path d="M68.1955 39.9999L76.0765 32.119L83.9575 24.2381L79.7618 20.0425L63.9998 35.8043L68.1955 39.9999Z" fill="#FE7E59"/>
<path d="M84 20.0003H64V25.9338H84V20.0003Z" fill="#FE7E59"/>
<path d="M84 40V20.0003L78.0664 20.0003V40H84Z" fill="#FE7E59"/>
<path d="M59.8046 0L44.4636 15.3408L48.6593 19.5364L64.0003 4.19565L59.8046 0Z" fill="white"/>
<path d="M44 20.0003H64V14.0667H44V20.0003Z" fill="white"/>
<path d="M44 0.00054508L44 20.0003L49.9336 20.0003V0.00054508H44Z" fill="white"/>
<path d="M6.20214 65.7583L8.31879 77.6241C9.46215 83.9821 5.84238 90.0432 3.55566 92L0 87.9812C2.43454 85.2595 4.02138 81.5588 3.30188 77.5189L1.18522 65.7583H6.20214Z" fill="white"/>
<path d="M11.8745 57.3803L16.5944 83.9834H11.4715L6.75288 57.3803H11.8758H11.8745Z" fill="white"/>
<path d="M43.9448 78.9225L38.0173 78.9015C38.61 77.6885 38.9488 76.3283 38.9488 74.8814C38.9488 69.8414 34.9065 65.7806 29.8896 65.7583H15.7702L16.6807 70.8205H29.9105C32.1122 70.8415 33.9109 72.6696 33.9109 74.8814C33.9109 77.0931 32.1122 78.9015 29.9105 78.9225L15.6944 78.9028L16.2425 82L17.5271 83.9624L29.9314 83.9834C31.8152 83.9624 33.5512 83.3881 35.0124 82.388L36.0276 83.9624L44.8343 83.9834L43.9448 78.9225Z" fill="white"/>
<path d="M29.0209 88.5135C29.0209 90.0011 27.8357 91.1918 26.3758 91.1918C24.9158 91.1918 23.7293 90.0011 23.7293 88.5135C23.7293 87.0258 24.9145 85.8759 26.3758 85.8759C27.837 85.8759 29.0209 87.0665 29.0209 88.5135Z" fill="#FE7E59"/>
<path d="M44.8749 65.7583H39.837L42.1866 78.9015H37.9323L41.2342 83.9624H43.0971V83.9834H48.114L44.8749 65.7583Z" fill="white"/>
<path d="M45.1928 62.4202C44.7271 63.8448 43.224 64.5886 41.8477 64.1208C40.4506 63.6753 39.7102 62.1653 40.1759 60.7407C40.3237 60.2939 40.5984 59.9114 40.9372 59.6131C39.646 59.1032 38.9684 57.6563 39.4132 56.2751C39.8789 54.9136 41.382 54.1474 42.7582 54.6152C44.1345 55.0831 44.8958 56.5931 44.4301 57.9546C44.2823 58.4224 44.0076 58.8259 43.6687 59.1242C44.939 59.6552 45.6376 61.1021 45.1928 62.4202Z" fill="#FE7E59"/>
<path d="M93.5619 65.7583L89.0944 69.0556L90.8094 78.9015H88.8615L86.597 65.7806L82.1309 69.0556L83.8446 78.9015H81.5801C81.6011 78.7096 81.6011 78.4967 81.6011 78.3048C81.6011 77.582 81.537 76.8592 81.4101 76.1574L79.5904 65.7583L75.1451 69.0556L76.4573 77.0511C76.5423 77.4545 76.5632 77.8803 76.5632 78.3048C76.5632 78.4967 76.5632 78.7096 76.5423 78.9015H76.4154L76.5214 79.05C76.1603 82.7494 73.0494 85.6209 69.2818 85.6209C65.2591 85.6209 61.9991 82.346 61.9991 78.3048C61.9991 74.2637 65.2591 70.99 69.2818 70.99C69.8954 70.99 70.488 71.0965 71.0387 71.266L70.085 65.9501C69.8103 65.9291 69.5565 65.9291 69.2818 65.9291C62.4858 65.9291 56.9613 71.4789 56.9613 78.3048C56.9613 85.1307 62.4858 90.6819 69.2818 90.6819C74.0436 90.6819 78.1723 87.9602 80.2248 83.9834H96.7159L93.5619 65.7583Z" fill="white"/>
<path d="M90.8304 59.9114C90.8304 61.3991 89.6451 62.5897 88.1852 62.5897C87.1687 62.5897 86.2792 62.0154 85.8344 61.1441C85.4118 62.0378 84.5013 62.6331 83.4639 62.6331C82.0027 62.6331 80.8175 61.4425 80.8175 59.9535C80.8175 58.4645 82.0027 57.3159 83.4639 57.3159C84.4804 57.3159 85.3686 57.8902 85.8134 58.7418C86.2373 57.8692 87.1478 57.2738 88.1852 57.2738C89.6451 57.2738 90.8304 58.4645 90.8304 59.9114Z" fill="#FE7E59"/>
<path d="M88.4599 54.6376C88.4599 56.1252 87.2747 57.3159 85.8134 57.3159C84.3522 57.3159 83.167 56.1252 83.167 54.6376C83.167 53.1499 84.3535 52 85.8134 52C87.2734 52 88.4599 53.1907 88.4599 54.6376Z" fill="#FE7E59"/>
<path d="M100.121 57.3803L104.841 83.9834H99.7182L94.9982 57.3803H100.121Z" fill="white"/>
<path d="M118.939 65.7583C123.956 65.7583 128 69.8414 128 74.8814C128 79.9213 123.979 83.9834 118.96 83.9834H105.899L102.132 78.9225H118.96C121.141 78.9225 122.961 77.0931 122.961 74.8827C122.961 72.6722 121.14 70.8205 118.939 70.8205H104.375L103.486 65.7596L117.838 57.3803C118.537 61.1652 114.769 63.0799 110.027 65.7596H118.938L118.939 65.7583Z" fill="white"/>
</svg>
